<svg xmlns="http://www.w3.org/2000/svg" xmlns:xlink="http://www.w3.org/1999/xlink" width="500" zoomAndPan="magnify" viewBox="0 0 375 374.999991" height="500" preserveAspectRatio="xMidYMid meet" version="1.0"><defs><g/></defs><g fill="#ffffff" fill-opacity="1"><g transform="translate(13.155468, 210.368585)"><g><path d="M 7.203125 -99 L 37.921875 -99 C 47.203125 -99 54.601562 -97.019531 60.125 -93.0625 C 65.644531 -89.101562 68.40625 -82.679688 68.40625 -73.796875 C 68.40625 -63.878906 64.285156 -56.800781 56.046875 -52.5625 C 70.117188 -50.082031 77.15625 -41.757812 77.15625 -27.59375 C 77.15625 -19.28125 74.273438 -12.601562 68.515625 -7.5625 C 62.753906 -2.519531 54.835938 0 44.765625 0 L 7.203125 0 Z M 29.765625 -60.234375 L 31.5625 -60.234375 C 36.601562 -60.234375 40.363281 -61.113281 42.84375 -62.875 C 45.320312 -64.632812 46.5625 -67.515625 46.5625 -71.515625 C 46.5625 -78.234375 41.5625 -81.59375 31.5625 -81.59375 L 29.765625 -81.59375 Z M 29.765625 -17.40625 L 36.84375 -17.40625 C 47.882812 -17.40625 53.40625 -21.082031 53.40625 -28.4375 C 53.40625 -32.84375 52.023438 -36.003906 49.265625 -37.921875 C 46.503906 -39.835938 42.363281 -40.796875 36.84375 -40.796875 L 29.765625 -40.796875 Z M 29.765625 -17.40625 "/></g></g></g><g fill="#ffffff" fill-opacity="1"><g transform="translate(93.067645, 210.368585)"><g><path d="M 57.484375 -99 L 97.4375 0 L 73.203125 0 L 65.875 -19.796875 L 28.203125 -19.796875 L 20.875 0 L -3.359375 0 L 36.59375 -99 Z M 58.203125 -39.59375 L 47.15625 -68.40625 L 46.921875 -68.40625 L 35.875 -39.59375 Z M 58.203125 -39.59375 "/></g></g></g><g fill="#ffffff" fill-opacity="1"><g transform="translate(187.138439, 210.368585)"><g><path d="M 57.484375 -99 L 97.4375 0 L 73.203125 0 L 65.875 -19.796875 L 28.203125 -19.796875 L 20.875 0 L -3.359375 0 L 36.59375 -99 Z M 58.203125 -39.59375 L 47.15625 -68.40625 L 46.921875 -68.40625 L 35.875 -39.59375 Z M 58.203125 -39.59375 "/></g></g></g><g fill="#ffffff" fill-opacity="1"><g transform="translate(281.209222, 210.368585)"><g><path d="M 43.6875 -100.796875 C 49.039062 -100.796875 54.273438 -100.015625 59.390625 -98.453125 C 64.515625 -96.898438 68.316406 -95.363281 70.796875 -93.84375 L 74.40625 -91.4375 L 65.28125 -73.4375 C 64.5625 -73.914062 63.5625 -74.535156 62.28125 -75.296875 C 61 -76.054688 58.597656 -77.078125 55.078125 -78.359375 C 51.554688 -79.640625 48.273438 -80.28125 45.234375 -80.28125 C 41.472656 -80.28125 38.570312 -79.476562 36.53125 -77.875 C 34.5 -76.28125 33.484375 -74.125 33.484375 -71.40625 C 33.484375 -70.039062 33.960938 -68.773438 34.921875 -67.609375 C 35.878906 -66.453125 37.515625 -65.210938 39.828125 -63.890625 C 42.148438 -62.578125 44.191406 -61.519531 45.953125 -60.71875 C 47.710938 -59.914062 50.4375 -58.71875 54.125 -57.125 C 60.519531 -54.40625 65.976562 -50.703125 70.5 -46.015625 C 75.019531 -41.335938 77.28125 -36.039062 77.28125 -30.125 C 77.28125 -24.4375 76.257812 -19.472656 74.21875 -15.234375 C 72.175781 -10.992188 69.375 -7.675781 65.8125 -5.28125 C 62.257812 -2.882812 58.320312 -1.109375 54 0.046875 C 49.675781 1.210938 44.992188 1.796875 39.953125 1.796875 C 35.640625 1.796875 31.398438 1.351562 27.234375 0.46875 C 23.078125 -0.40625 19.597656 -1.5 16.796875 -2.8125 C 13.992188 -4.132812 11.472656 -5.4375 9.234375 -6.71875 C 6.992188 -8 5.351562 -9.078125 4.3125 -9.953125 L 2.765625 -11.28125 L 14.046875 -30.234375 C 15.003906 -29.441406 16.320312 -28.421875 18 -27.171875 C 19.675781 -25.929688 22.65625 -24.269531 26.9375 -22.1875 C 31.21875 -20.113281 35 -19.078125 38.28125 -19.078125 C 47.800781 -19.078125 52.5625 -22.316406 52.5625 -28.796875 C 52.5625 -30.160156 52.21875 -31.421875 51.53125 -32.578125 C 50.851562 -33.734375 49.65625 -34.890625 47.9375 -36.046875 C 46.21875 -37.210938 44.695312 -38.132812 43.375 -38.8125 C 42.0625 -39.5 39.90625 -40.539062 36.90625 -41.9375 C 33.90625 -43.34375 31.679688 -44.40625 30.234375 -45.125 C 24.234375 -48.082031 19.59375 -51.78125 16.3125 -56.21875 C 13.039062 -60.65625 11.40625 -65.4375 11.40625 -70.5625 C 11.40625 -79.4375 14.679688 -86.691406 21.234375 -92.328125 C 27.796875 -97.972656 35.28125 -100.796875 43.6875 -100.796875 Z M 43.6875 -100.796875 "/></g></g></g><g fill="#ffffff" fill-opacity="1"><g transform="translate(41.335947, 275.244196)"><g><path d="M 21.84375 -50.40625 C 24.519531 -50.40625 27.140625 -50.015625 29.703125 -49.234375 C 32.265625 -48.453125 34.164062 -47.679688 35.40625 -46.921875 L 37.203125 -45.71875 L 32.640625 -36.71875 C 32.273438 -36.957031 31.773438 -37.265625 31.140625 -37.640625 C 30.503906 -38.023438 29.304688 -38.535156 27.546875 -39.171875 C 25.785156 -39.816406 24.144531 -40.140625 22.625 -40.140625 C 20.738281 -40.140625 19.285156 -39.738281 18.265625 -38.9375 C 17.242188 -38.132812 16.734375 -37.054688 16.734375 -35.703125 C 16.734375 -35.023438 16.972656 -34.394531 17.453125 -33.8125 C 17.941406 -33.226562 18.765625 -32.601562 19.921875 -31.9375 C 21.078125 -31.28125 22.09375 -30.753906 22.96875 -30.359375 C 23.851562 -29.960938 25.21875 -29.363281 27.0625 -28.5625 C 30.257812 -27.195312 32.988281 -25.34375 35.25 -23 C 37.507812 -20.664062 38.640625 -18.019531 38.640625 -15.0625 C 38.640625 -12.21875 38.128906 -9.734375 37.109375 -7.609375 C 36.085938 -5.492188 34.6875 -3.835938 32.90625 -2.640625 C 31.125 -1.441406 29.15625 -0.550781 27 0.03125 C 24.84375 0.613281 22.503906 0.90625 19.984375 0.90625 C 17.816406 0.90625 15.691406 0.679688 13.609375 0.234375 C 11.535156 -0.203125 9.796875 -0.75 8.390625 -1.40625 C 6.992188 -2.070312 5.734375 -2.722656 4.609375 -3.359375 C 3.492188 -3.992188 2.675781 -4.535156 2.15625 -4.984375 L 1.375 -5.640625 L 7.015625 -15.125 C 7.492188 -14.71875 8.15625 -14.203125 9 -13.578125 C 9.84375 -12.960938 11.332031 -12.132812 13.46875 -11.09375 C 15.613281 -10.0625 17.503906 -9.546875 19.140625 -9.546875 C 23.898438 -9.546875 26.28125 -11.164062 26.28125 -14.40625 C 26.28125 -15.082031 26.109375 -15.707031 25.765625 -16.28125 C 25.429688 -16.863281 24.832031 -17.445312 23.96875 -18.03125 C 23.113281 -18.613281 22.351562 -19.070312 21.6875 -19.40625 C 21.03125 -19.75 19.953125 -20.269531 18.453125 -20.96875 C 16.953125 -21.664062 15.84375 -22.195312 15.125 -22.5625 C 12.125 -24.039062 9.800781 -25.890625 8.15625 -28.109375 C 6.519531 -30.328125 5.703125 -32.71875 5.703125 -35.28125 C 5.703125 -39.71875 7.34375 -43.347656 10.625 -46.171875 C 13.90625 -48.992188 17.644531 -50.40625 21.84375 -50.40625 Z M 21.84375 -50.40625 "/></g></g></g><g fill="#ffffff" fill-opacity="1"><g transform="translate(81.648101, 275.244196)"><g><path d="M 6.5 -3.65625 C 3.082031 -6.695312 1.375 -10.597656 1.375 -15.359375 C 1.375 -20.117188 3.15625 -24.03125 6.71875 -27.09375 C 10.28125 -30.15625 14.679688 -31.6875 19.921875 -31.6875 C 25.078125 -31.6875 29.425781 -30.144531 32.96875 -27.0625 C 36.507812 -23.976562 38.28125 -20.078125 38.28125 -15.359375 C 38.28125 -10.640625 36.550781 -6.75 33.09375 -3.6875 C 29.632812 -0.625 25.242188 0.90625 19.921875 0.90625 C 14.398438 0.90625 9.925781 -0.613281 6.5 -3.65625 Z M 14.71875 -20.578125 C 13.34375 -19.222656 12.65625 -17.484375 12.65625 -15.359375 C 12.65625 -13.242188 13.316406 -11.515625 14.640625 -10.171875 C 15.960938 -8.828125 17.703125 -8.15625 19.859375 -8.15625 C 21.941406 -8.15625 23.648438 -8.832031 24.984375 -10.1875 C 26.328125 -11.550781 27 -13.273438 27 -15.359375 C 27 -17.484375 26.304688 -19.222656 24.921875 -20.578125 C 23.546875 -21.941406 21.859375 -22.625 19.859375 -22.625 C 17.816406 -22.625 16.101562 -21.941406 14.71875 -20.578125 Z M 14.71875 -20.578125 "/></g></g></g><g fill="#ffffff" fill-opacity="1"><g transform="translate(121.300377, 275.244196)"><g><path d="M 5.40625 -30.78125 L 5.40625 -37.3125 C 5.4375 -41.914062 6.507812 -45.597656 8.625 -48.359375 C 10.75 -51.117188 13.691406 -52.5 17.453125 -52.5 C 19.054688 -52.5 20.585938 -52.269531 22.046875 -51.8125 C 23.503906 -51.351562 24.554688 -50.882812 25.203125 -50.40625 L 26.21875 -49.734375 L 22.5 -42.234375 C 21.539062 -42.796875 20.476562 -43.078125 19.3125 -43.078125 C 18 -43.078125 17.117188 -42.625 16.671875 -41.71875 C 16.234375 -40.820312 16.015625 -39.253906 16.015625 -37.015625 L 16.015625 -30.78125 L 23.09375 -30.78125 L 23.09375 -22.6875 L 16.015625 -22.6875 L 16.015625 0 L 5.40625 0 L 5.40625 -22.6875 L 0.953125 -22.6875 L 0.953125 -30.78125 Z M 5.40625 -30.78125 "/></g></g></g><g fill="#ffffff" fill-opacity="1"><g transform="translate(143.795993, 275.244196)"><g><path d="M 5.40625 -30.78125 L 5.40625 -42.234375 L 16.015625 -42.234375 L 16.015625 -30.78125 L 22.5 -30.78125 L 22.5 -22.6875 L 16.015625 -22.6875 L 16.015625 -12.90625 C 16.015625 -10.0625 16.816406 -8.640625 18.421875 -8.640625 C 18.816406 -8.640625 19.234375 -8.71875 19.671875 -8.875 C 20.117188 -9.039062 20.460938 -9.203125 20.703125 -9.359375 L 21.0625 -9.59375 L 23.703125 -1.015625 C 21.421875 0.265625 18.820312 0.90625 15.90625 0.90625 C 13.90625 0.90625 12.179688 0.554688 10.734375 -0.140625 C 9.296875 -0.847656 8.207031 -1.789062 7.46875 -2.96875 C 6.726562 -4.144531 6.195312 -5.382812 5.875 -6.6875 C 5.5625 -7.988281 5.40625 -9.378906 5.40625 -10.859375 L 5.40625 -22.6875 L 0.953125 -22.6875 L 0.953125 -30.78125 Z M 5.40625 -30.78125 "/></g></g></g><g fill="#ffffff" fill-opacity="1"><g transform="translate(167.491373, 275.244196)"><g><path d="M 22.5 0 L 15.296875 0 L -1.203125 -30.78125 L 11.046875 -30.78125 L 18.546875 -14.15625 L 25.921875 -30.78125 L 33.234375 -30.78125 L 40.625 -14.15625 L 48.125 -30.78125 L 60.359375 -30.78125 L 43.859375 0 L 36.65625 0 L 29.578125 -15.90625 Z M 22.5 0 "/></g></g></g><g fill="#ffffff" fill-opacity="1"><g transform="translate(226.639848, 275.244196)"><g><path d="M 5.6875 -3.796875 C 2.8125 -6.941406 1.375 -10.796875 1.375 -15.359375 C 1.375 -19.921875 2.8125 -23.78125 5.6875 -26.9375 C 8.570312 -30.101562 12.238281 -31.6875 16.6875 -31.6875 C 20.757812 -31.6875 24.117188 -30.40625 26.765625 -27.84375 L 26.765625 -30.78125 L 37.375 -30.78125 L 37.375 0 L 26.875 0 L 26.875 -3.484375 L 26.765625 -3.484375 C 24.117188 -0.554688 20.757812 0.90625 16.6875 0.90625 C 12.238281 0.90625 8.570312 -0.660156 5.6875 -3.796875 Z M 14.71875 -20.578125 C 13.34375 -19.222656 12.65625 -17.484375 12.65625 -15.359375 C 12.65625 -13.242188 13.316406 -11.515625 14.640625 -10.171875 C 15.960938 -8.828125 17.703125 -8.15625 19.859375 -8.15625 C 21.941406 -8.15625 23.648438 -8.832031 24.984375 -10.1875 C 26.328125 -11.550781 27 -13.273438 27 -15.359375 C 27 -17.484375 26.304688 -19.222656 24.921875 -20.578125 C 23.546875 -21.941406 21.859375 -22.625 19.859375 -22.625 C 17.816406 -22.625 16.101562 -21.941406 14.71875 -20.578125 Z M 14.71875 -20.578125 "/></g></g></g><g fill="#ffffff" fill-opacity="1"><g transform="translate(267.611857, 275.244196)"><g><path d="M 3.59375 0 L 3.59375 -30.78125 L 14.21875 -30.78125 L 14.21875 -26.34375 L 14.34375 -26.34375 C 14.414062 -26.5 14.539062 -26.695312 14.71875 -26.9375 C 14.90625 -27.175781 15.296875 -27.59375 15.890625 -28.1875 C 16.492188 -28.789062 17.132812 -29.332031 17.8125 -29.8125 C 18.5 -30.300781 19.378906 -30.734375 20.453125 -31.109375 C 21.535156 -31.492188 22.640625 -31.6875 23.765625 -31.6875 C 24.921875 -31.6875 26.054688 -31.523438 27.171875 -31.203125 C 28.296875 -30.878906 29.117188 -30.554688 29.640625 -30.234375 L 30.484375 -29.765625 L 26.046875 -20.765625 C 24.722656 -21.878906 22.878906 -22.4375 20.515625 -22.4375 C 19.234375 -22.4375 18.132812 -22.15625 17.21875 -21.59375 C 16.300781 -21.039062 15.648438 -20.363281 15.265625 -19.5625 C 14.890625 -18.757812 14.617188 -18.078125 14.453125 -17.515625 C 14.296875 -16.960938 14.21875 -16.523438 14.21875 -16.203125 L 14.21875 0 Z M 3.59375 0 "/></g></g></g><g fill="#ffffff" fill-opacity="1"><g transform="translate(297.486039, 275.244196)"><g><path d="M 34.734375 -13.921875 L 12.421875 -13.921875 C 12.421875 -11.765625 13.117188 -10.164062 14.515625 -9.125 C 15.921875 -8.082031 17.441406 -7.5625 19.078125 -7.5625 C 20.796875 -7.5625 22.15625 -7.789062 23.15625 -8.25 C 24.15625 -8.707031 25.296875 -9.617188 26.578125 -10.984375 L 34.265625 -7.140625 C 31.054688 -1.773438 25.734375 0.90625 18.296875 0.90625 C 13.660156 0.90625 9.679688 -0.679688 6.359375 -3.859375 C 3.035156 -7.046875 1.375 -10.878906 1.375 -15.359375 C 1.375 -19.835938 3.035156 -23.675781 6.359375 -26.875 C 9.679688 -30.082031 13.660156 -31.6875 18.296875 -31.6875 C 23.179688 -31.6875 27.148438 -30.273438 30.203125 -27.453125 C 33.265625 -24.628906 34.796875 -20.597656 34.796875 -15.359375 C 34.796875 -14.640625 34.773438 -14.160156 34.734375 -13.921875 Z M 12.71875 -19.796875 L 24.421875 -19.796875 C 24.179688 -21.398438 23.550781 -22.628906 22.53125 -23.484375 C 21.507812 -24.347656 20.195312 -24.78125 18.59375 -24.78125 C 16.832031 -24.78125 15.429688 -24.316406 14.390625 -23.390625 C 13.359375 -22.472656 12.800781 -21.273438 12.71875 -19.796875 Z M 12.71875 -19.796875 "/></g></g></g></svg>