<svg xmlns="http://www.w3.org/2000/svg" version="1.1" xmlns:xlink="http://www.w3.org/1999/xlink" xmlns:svgjs="http://svgjs.com/svgjs" width="1440" height="560" preserveAspectRatio="none" viewBox="0 0 1440 560"><g mask="url(&quot;#SvgjsMask1020&quot;)" fill="none"><rect width="1440" height="560" x="0" y="0" fill="url(#SvgjsLinearGradient1021)"></rect><path d="M1440 0L1148.22 0L1440 29.71z" fill="rgba(255, 255, 255, .1)"></path><path d="M1148.22 0L1440 29.71L1440 124.57L686.56 0z" fill="rgba(255, 255, 255, .075)"></path><path d="M686.56 0L1440 124.57L1440 197.43L268.03 0z" fill="rgba(255, 255, 255, .05)"></path><path d="M268.03 0L1440 197.43L1440 433.86L96.87999999999997 0z" fill="rgba(255, 255, 255, .025)"></path><path d="M0 560L107.88 560L0 440.87z" fill="rgba(0, 0, 0, .1)"></path><path d="M0 440.87L107.88 560L767.27 560L0 346.01z" fill="rgba(0, 0, 0, .075)"></path><path d="M0 346.01L767.27 560L1010.18 560L0 259.41999999999996z" fill="rgba(0, 0, 0, .05)"></path><path d="M0 259.41999999999996L1010.18 560L1176.12 560L0 194.09999999999997z" fill="rgba(0, 0, 0, .025)"></path></g><defs><mask id="SvgjsMask1020"><rect width="1440" height="560" fill="#ffffff"></rect></mask><linearGradient x1="15.28%" y1="-39.29%" x2="84.72%" y2="139.29%" gradientUnits="userSpaceOnUse" id="SvgjsLinearGradient1021"><stop stop-color="#0e2a47" offset="0"></stop><stop stop-color="rgba(28, 79, 130, 1)" offset="1"></stop></linearGradient></defs></svg>