<?xml version="1.0" encoding="utf-8"?>
<!-- Generator: Adobe Illustrator 22.0.0, SVG Export Plug-In . SVG Version: 6.00 Build 0)  -->
<svg version="1.1" id="Icons" xmlns="http://www.w3.org/2000/svg" xmlns:xlink="http://www.w3.org/1999/xlink" x="0px" y="0px"
	 viewBox="0 0 64 64" style="enable-background:new 0 0 64 64;" xml:space="preserve">
<style type="text/css">
	.st0{fill:#3CC8B4;}
	.st1{fill:#1EAA96;}
	.st2{fill:#505050;}
	.st3{fill:#3C3C3C;}
	.st4{fill:#FAB400;}
	.st5{fill:#DC9600;}
	.st6{fill:#F0F0F0;}
	.st7{fill:#D2D2D2;}
	.st8{fill:#FA6450;}
	.st9{fill:#DC4632;}
	.st10{fill:#46AAD2;}
	.st11{fill:#64C8F0;}
	.st12{fill:#BE2814;}
	.st13{fill:#BE7800;}
	.st14{fill:#B4B4B4;}
	.st15{fill:#288CB4;}
	.st16{fill:#D2AA82;}
	.st17{fill:#F0C8A0;}
</style>
<g>
	<g>
		<path class="st4" d="M40,24H24c-1.105,0-2-0.895-2-2V6c0-1.105,0.895-2,2-2h16c1.105,0,2,0.895,2,2v16C42,23.105,41.105,24,40,24z
			"/>
	</g>
	<g>
		<path class="st2" d="M42,42c-2.206,0-4-1.794-4-4v-4H26v4c0,2.206-1.794,4-4,4h-2v18h24V42H42z"/>
	</g>
	<g>
		<path class="st6" d="M38,38v-2H26v2c0,2.206-1.794,4-4,4v18h20V42C39.794,42,38,40.206,38,38z"/>
	</g>
	<g>
		<path class="st0" d="M20,22v-2H6c-1.105,0-2,0.895-2,2v16c0,1.105,0.895,2,2,2h16c1.105,0,2-0.895,2-2V26
			C21.794,26,20,24.206,20,22z"/>
	</g>
	<g>
		<path class="st11" d="M58,20H44v2c0,2.206-1.794,4-4,4v12c0,1.105,0.895,2,2,2h16c1.105,0,2-0.895,2-2V22
			C60,20.895,59.105,20,58,20z"/>
	</g>
	<g>
		<path class="st5" d="M24,22V6c0-1.105,0.895-2,2-2h-2c-1.105,0-2,0.895-2,2v16c0,1.105,0.895,2,2,2h2C24.895,24,24,23.105,24,22z"
			/>
	</g>
	<g>
		<path class="st1" d="M6,38V22c0-1.105,0.895-2,2-2H6c-1.105,0-2,0.895-2,2v16c0,1.105,0.895,2,2,2h2C6.895,40,6,39.105,6,38z"/>
	</g>
	<g>
		<path class="st10" d="M42,38V26c2.206,0,4-1.794,4-4v-2h-2v2c0,2.206-1.794,4-4,4v12c0,1.105,0.895,2,2,2h2
			C42.895,40,42,39.105,42,38z"/>
	</g>
	<g>
		<g>
			<path class="st14" d="M32,54c-1.469,0-2.851-0.572-3.889-1.611c-2.145-2.145-2.145-5.634,0-7.778l0.707,0.707
				c-1.754,1.755-1.754,4.609,0,6.364C29.668,52.532,30.798,53,32,53s2.332-0.468,3.182-1.318c0.851-0.85,1.318-1.98,1.318-3.182
				s-0.468-2.332-1.318-3.182l0.707-0.707c1.039,1.039,1.611,2.42,1.611,3.889s-0.572,2.851-1.611,3.889
				C34.851,53.428,33.469,54,32,54z"/>
		</g>
	</g>
	<g>
		<g>
			<rect x="31.5" y="42.5" class="st14" width="1" height="4"/>
		</g>
	</g>
	<g>
		<circle class="st6" cx="32" cy="14" r="4"/>
	</g>
	<g>
		<g>
			<rect x="31.5" y="7" class="st6" width="1" height="2"/>
		</g>
	</g>
	<g>
		<g>
			<rect x="31.5" y="19" class="st6" width="1" height="2"/>
		</g>
	</g>
	<g>
		<g>
			<rect x="37" y="13.5" class="st6" width="2" height="1"/>
		</g>
	</g>
	<g>
		<g>
			<rect x="25" y="13.5" class="st6" width="2" height="1"/>
		</g>
	</g>
	<g>
		<g>
			<rect x="35.242" y="9.257" transform="matrix(0.7071 -0.7071 0.7071 0.7071 3.7158 28.4853)" class="st6" width="2" height="1"/>
		</g>
	</g>
	<g>
		<g>
			
				<rect x="26.757" y="17.743" transform="matrix(0.7071 -0.7071 0.7071 0.7071 -4.7696 24.9705)" class="st6" width="2" height="1"/>
		</g>
	</g>
	<g>
		<g>
			
				<rect x="35.743" y="17.242" transform="matrix(0.7069 -0.7074 0.7074 0.7069 -2.2799 30.9839)" class="st6" width="1" height="2"/>
		</g>
	</g>
	<g>
		<g>
			<rect x="27.257" y="8.757" transform="matrix(0.7069 -0.7074 0.7074 0.7069 1.2349 22.4944)" class="st6" width="1" height="2"/>
		</g>
	</g>
	<g>
		<path class="st6" d="M18,38h-8c-1.105,0-2-0.895-2-2v-6c0-1.105,0.895-2,2-2h8c1.105,0,2,0.895,2,2v6C20,37.105,19.105,38,18,38z"
			/>
	</g>
	<g>
		<path class="st6" d="M11,28v-3c0-1.105,0.895-2,2-2h2c1.105,0,2,0.895,2,2v3h1v-3c0-1.657-1.343-3-3-3h-2c-1.657,0-3,1.343-3,3v3
			H11z"/>
	</g>
	<g>
		<path class="st6" d="M55,30l2.4,3.2c0.389,0.519,0.6,1.151,0.6,1.8v0c0,1.657-1.343,3-3,3h0c-1.657,0-3-1.343-3-3v0
			c0-0.649,0.211-1.281,0.6-1.8L55,30z"/>
	</g>
	<g>
		<path class="st6" d="M51,22l2.4,3.2c0.389,0.519,0.6,1.151,0.6,1.8v0c0,1.657-1.343,3-3,3h0c-1.657,0-3-1.343-3-3v0
			c0-0.649,0.211-1.281,0.6-1.8L51,22z"/>
	</g>
	<g>
		<path class="st6" d="M47,30l2.4,3.2c0.389,0.519,0.6,1.151,0.6,1.8v0c0,1.657-1.343,3-3,3h0c-1.657,0-3-1.343-3-3v0
			c0-0.649,0.211-1.281,0.6-1.8L47,30z"/>
	</g>
</g>
</svg>
