<svg xmlns="http://www.w3.org/2000/svg" xmlns:xlink="http://www.w3.org/1999/xlink" viewBox="0 0 4680 3120"><defs><style>.cls-1{fill:#92b9dd;}.cls-2{fill:#739bc6;}.cls-3{fill:#4b4f98;}.cls-4{fill:#f7bd7d;}.cls-5,.cls-94{fill:#fff;}.cls-6{fill:#6a81bb;}.cls-7{fill:#526faa;}.cls-8{fill:#e64155;}.cls-9{fill:#d9e7f9;}.cls-10{fill:#5b2008;}.cls-11{fill:#e59a51;}.cls-12{fill:#96cda8;}.cls-13{fill:#55a56b;}.cls-14{fill:#7d4162;}.cls-15{fill:#779be0;}.cls-16{fill:#dce6ef;}.cls-17{fill:#8da6ce;}.cls-18{fill:#da6b51;}.cls-19{fill:#353d84;}.cls-20{fill:#b3cde8;}.cls-21{clip-path:url(#clip-path);}.cls-22,.cls-24,.cls-31{fill:none;stroke-linecap:round;stroke-linejoin:round;}.cls-22{stroke:#fff;}.cls-22,.cls-24{stroke-width:9px;}.cls-23{clip-path:url(#clip-path-2);}.cls-24{stroke:#d9e7f9;}.cls-25{clip-path:url(#clip-path-3);}.cls-26{fill:#fdfeff;opacity:0.47;}.cls-27{fill:#dbb36e;}.cls-28{fill:#fff6e1;}.cls-29{fill:#f4d3b8;}.cls-30{fill:#fff2cf;}.cls-31{stroke:#da6b51;stroke-width:8px;}.cls-32{fill:#e88470;}.cls-33{fill:#ad6014;}.cls-34{fill:#ba7c2b;}.cls-35{fill:#ffd071;}.cls-36{fill:#ffe799;}.cls-37{fill:#93430d;}.cls-38{fill:#e0772f;}.cls-39{clip-path:url(#clip-path-4);}.cls-40{fill:#5d86c6;}.cls-41{fill:#85a3e0;}.cls-42{clip-path:url(#clip-path-5);}.cls-43{fill:#5474a3;}.cls-44{fill:#98bcf4;}.cls-45{fill:#2b0a1f;}.cls-46{fill:#602849;}.cls-47{clip-path:url(#clip-path-6);}.cls-48{fill:#a5628a;}.cls-49{clip-path:url(#clip-path-7);}.cls-50{fill:#892413;}.cls-51{clip-path:url(#clip-path-8);}.cls-52{fill:#253070;}.cls-53{clip-path:url(#clip-path-9);}.cls-54{clip-path:url(#clip-path-10);}.cls-55{fill:#343c7f;opacity:0.71;}.cls-56{fill:#d68847;}.cls-57{clip-path:url(#clip-path-11);}.cls-58{fill:#373e82;}.cls-59{clip-path:url(#clip-path-12);}.cls-60{clip-path:url(#clip-path-13);}.cls-61{fill:#3f62a8;}.cls-61,.cls-63{opacity:0.57;}.cls-62{clip-path:url(#clip-path-14);}.cls-63{fill:#1c52a0;}.cls-64{fill:#323b8e;}.cls-65{clip-path:url(#clip-path-15);}.cls-66{clip-path:url(#clip-path-16);}.cls-67{fill:#b51c3d;}.cls-68{clip-path:url(#clip-path-17);}.cls-69{fill:url(#radial-gradient);}.cls-70{fill:url(#radial-gradient-2);}.cls-71{clip-path:url(#clip-path-18);}.cls-72{clip-path:url(#clip-path-19);}.cls-73{clip-path:url(#clip-path-20);}.cls-74{fill:#cc6d4c;}.cls-75{clip-path:url(#clip-path-21);}.cls-76{fill:#8e385b;}.cls-77{fill:#561c3e;}.cls-78{clip-path:url(#clip-path-22);}.cls-79{clip-path:url(#clip-path-23);}.cls-80{fill:#c67430;}.cls-81{clip-path:url(#clip-path-24);}.cls-82{clip-path:url(#clip-path-25);}.cls-83{clip-path:url(#clip-path-26);}.cls-84{clip-path:url(#clip-path-27);}.cls-85{clip-path:url(#clip-path-28);}.cls-86{clip-path:url(#clip-path-29);}.cls-87{fill:#c6223e;}.cls-88{fill:#78b589;}.cls-89{clip-path:url(#clip-path-30);}.cls-90{clip-path:url(#clip-path-31);}.cls-91{fill:#418c52;}.cls-92{clip-path:url(#clip-path-32);}.cls-93{fill:#662d4f;}.cls-94{opacity:0.38;}.cls-95{clip-path:url(#clip-path-33);}.cls-96{fill:url(#radial-gradient-3);}.cls-97{clip-path:url(#clip-path-34);}.cls-98{fill:#3a4899;}.cls-99{clip-path:url(#clip-path-35);}.cls-100{fill:#3f5f9e;}.cls-101{fill:#2b3272;}.cls-102{fill:#43509e;}.cls-103{clip-path:url(#clip-path-36);}.cls-104{fill:#45619b;opacity:0.6;}</style><clipPath id="clip-path"><path class="cls-1" d="M1502,2654.1s65.18-62.06,96.24-223.42-41.84-297.93-103.9-336.73-71.38,37.23-32.61,139.64,64.36,214.14,48.82,306.46S1477.16,2658,1477.16,2658Z"/></clipPath><clipPath id="clip-path-2"><path class="cls-2" d="M1426,2665.46s36.22-73.44,26.93-224.46-63.05-278.28-140.62-378.63-146.86-143.81-191.35-106.58,17.56,143.79,69.27,204.83,121,153.12,147.88,247.25,38.25,188.28,25.82,257.58C1392.85,2669.6,1426,2665.46,1426,2665.46Z"/></clipPath><clipPath id="clip-path-3"><path class="cls-9" d="M2240,2253.89c430.29,15.48,938.84-103.59,1184.88-534.16s265.46-751.07,100.36-1045.67-501.8-382-815.82-242.81S2107.22,687,1887.08,599.6s-563.31-97.13-760.79,213.66-155.39,786.68,80.94,1023S1790,2237.7,2240,2253.89Z"/></clipPath><clipPath id="clip-path-4"><ellipse class="cls-16" cx="2370.19" cy="2679.07" rx="1238.09" ry="80.93"/></clipPath><clipPath id="clip-path-5"><rect class="cls-17" x="2723.4" y="1907.49" width="38.85" height="707.9"/></clipPath><clipPath id="clip-path-6"><polygon class="cls-9" points="2963.92 1820.22 2706.42 1820.22 2653.49 1604 2910.98 1604 2963.92 1820.22"/></clipPath><clipPath id="clip-path-7"><path class="cls-18" d="M1782.23,2516s.8,50.08,2.41,52.48,99.62,28.85,108.84,38.47,6,54.48,6,54.48l-206.73-2s-2.41-12.42-2.41-39.66,16-50.48,16-50.48l-.8-53.29Z"/></clipPath><clipPath id="clip-path-8"><path class="cls-19" d="M1808.3,1663.25l7.46,23.63S1837.5,2010,1836,2110s-23.88,409-23.88,409-71.65,40.3-140.31-10.45c6-120.91,16.42-286.59,11.94-359.73s-24-126-24-126l27.16-351.08Z"/></clipPath><clipPath id="clip-path-9"><path class="cls-18" d="M1438,2476.47s-23,58.77-20.82,63.47,15.83,37.21,37.64,45.34,39.56,45.12,14.75,76.55c-45.33,6.2-76.48,5.56-104.7-18.39s-69-65.86-69-79,26.51-59.58,52.74-60.44c13.4-30.79,25.81-70.45,25.81-70.45Z"/></clipPath><clipPath id="clip-path-10"><path class="cls-3" d="M1726.83,1672.24s-42.74,270.86-69.61,385.79-29.9,112.38-48.56,155.66S1455.85,2510,1455.85,2510s-69.65,13.93-121.4-71.65c56.72-100.5,152.25-322.41,154.24-344.3s20.21-423.83,20.21-423.83Z"/></clipPath><clipPath id="clip-path-11"><path class="cls-4" d="M2082.37,1250.42c-19.33-7.46-15.11-17.76-11.7-28.1s26.61-78.5,29.95-85.55,54.2-29.76,61.46-27.58,5.47,14.49-2.52,17.83-31.78,11.32-34.81,18.07-5.24,45.92,0,56.66c13.43-1.81,23.46-13.16,37.28-13.18s20.24,10.31,12.73,14-19.55,12.27-31.66,24.25-36.15,27-36.15,27S2101.35,1257.74,2082.37,1250.42Z"/></clipPath><clipPath id="clip-path-12"><path class="cls-5" d="M1708.18,1125.19s61.34,28.65,85.83,34.67,25.73,37,29.17,53.72,5.59,156.3,3.56,259.66,5.15,303.14,5.15,303.14-30.08,32.35-92.07,18.07c-78.83,12.13-150,6.07-243.8-55.83,10.75-90.9,29.28-216.89,30.5-278.91s-11.57-227.22-3.72-267.4,44.23-56,111.65-72.87C1678.23,1129.46,1708.18,1125.19,1708.18,1125.19Z"/></clipPath><clipPath id="clip-path-13"><path class="cls-6" d="M1590.66,1114.34s56.42,32.61,97.74,89.78,60,94.47,59.68,121.56,4.28,322.79-8.26,468.77c-39.06,53.41-158.73,24.17-158.73,24.17l-111.85-23.29,8.87-285.84,18.15-374.28Z"/></clipPath><clipPath id="clip-path-14"><path class="cls-7" d="M1761.84,1124.56l-14.14,175.93-7.25,503.87s19.25,10.22,75.9-5.45,36.27-74.31,35.42-77.32-18.48-550.53-18.48-550.53S1801.34,1124.91,1761.84,1124.56Z"/></clipPath><clipPath id="clip-path-15"><path class="cls-4" d="M1641.32,1055.11s3.38,3.92,3,8.65-3.7,33.35-3.7,33.35l-2.73,21.9s28.53,30.12,67.21,36.79c8.19-16.91,5.93-23.74,5.93-23.74l4.86-40.17-25.39-39.11Z"/></clipPath><clipPath id="clip-path-16"><path class="cls-8" d="M1779.74,941.29s34.71-3.06,43-29.68-9.89-42.8-26.79-43c11.69-14.75,2.87-35.25-9.54-39.93s-31.65,0-36.87,10.61c-17.26-25-55.93-39.93-76.61-31.29s-19.43,28.59-19.43,28.59-32.73-8.27-46.76,13.31-.54,34.89-.54,34.89-22.3,7.38-21.58,27.16,19.6,27.52,19.6,27.52,3.24,25.36,10.43,59.89,29.14,60.07,29.14,60.07l25.54-8.63Z"/></clipPath><clipPath id="clip-path-17"><path class="cls-4" d="M1784.12,938.29v89.29c0,31.84-11.42,77.61-61.33,74.37s-70.33-62.76-70.33-62.76-22.66-5.67-22.66-36.16,26.71-22.39,28.33-7.82l2.16,19.43,4.58,1.34s8.37-38.57,11.34-64.74c1.07-10,12.67-6.48,22.66-4.59s18.21-14.57,30.08-15.11S1754.71,952.32,1784.12,938.29Z"/></clipPath><radialGradient id="radial-gradient" cx="1688.35" cy="1027.4" r="18.08" gradientUnits="userSpaceOnUse"><stop offset="0" stop-color="#f46d38"/><stop offset="1" stop-color="#f7bd7d"/></radialGradient><radialGradient id="radial-gradient-2" cx="1789.42" cy="1027.4" r="18.08" xlink:href="#radial-gradient"/><clipPath id="clip-path-18"><path class="cls-10" d="M1704.91,1052.65c1.44-6.67,47.59-5.59,51,.16s-14.94,19.92-31,19.12S1703.91,1057.33,1704.91,1052.65Z"/></clipPath><clipPath id="clip-path-19"><path class="cls-4" d="M1691.85,1548.84s29.38-1.74,46-.52,39.87,3.34,48.61,4.75,6.27,11.6-9.63,10.18-19.91.2-19.91.2,35.26,18.73,43.4,21.84,37.26,27.52,31.11,34.35-24.62-10-30.44-15.34-38.84-15.73-38.84-15.73,28.29,20.54,33.79,24.85,34.71,30.21,28.32,37.49-30.14-19.21-37.41-25.6-26-14.46-26-14.46,16.47,20.09,21.73,24.85,26.3,17.77,24.39,22.51-15.85,2.33-30.43-9.31-27.59-21.89-27.59-21.89,6.62,17.53,13.36,22.2,22.43,11.44,19.28,15.82-19.91.21-27.79-4.49-26.38-19.25-42.76-31.83-39.74-36.24-39.74-36.24Z"/></clipPath><clipPath id="clip-path-20"><path class="cls-3" d="M1568.92,1162.72c26.52,26.08,21.67,89.3,17.35,125.63s-44.6,146.76-44.6,146.76l155.3,98.47s4.68,54.67-32.73,64c-57.92-29.49-198.56-89.92-223.74-116.18s70.86-286,79.85-304.67S1550.88,1145,1568.92,1162.72Z"/></clipPath><clipPath id="clip-path-21"><path class="cls-11" d="M3011.54,2065.21l-7.75-12.31s-59.31,15.92-59.27,47.25c0,20.67,43.35,157,61.92,236.94s27.53,112.13,31.29,150.65-25.82,83.57-25.82,83.57-39.47,29.54-41.27,39.36,6.24,37.58,11.08,41.27,44.33-1,72.6-13.86,43.17-29.91,43.17-29.91l-2.59-39.51,17.31,32.56,15.36-6.25s1.78-38.65-.57-56-22.33-34.12-27-44.71-6.83-141.44-12.71-202.36-45.05-147-45.05-147l18.12-37.39Z"/></clipPath><clipPath id="clip-path-22"><path class="cls-4" d="M3057.12,2095.18l-29.77-39.85s-59.59,8.5-80.46,35.72c-13.09,17.07-33.57,166-54,248.92s-27.23,116.92-42,154.29-64.23,64.32-64.23,64.32-51.48,7.8-57.86,16-12,37.72-9.12,43.5,42.48,20.94,75.43,23,55.17-6.32,55.17-6.32l16.33-37.7.92,38.54,17.54,1.8s20.08-34.75,26.09-51.89-4.94-42.44-4.33-54.51,60.81-133.75,84.21-192.81,27.21-157.68,27.21-157.68l48.47-2.93Z"/></clipPath><clipPath id="clip-path-23"><path class="cls-11" d="M3182.83,1645c14.56-8.32,24,1.35,24,1.35s18,59.53,21.23,74.09,32.19,101.8,34.89,100.18,28.6-16.72,28.6-16.72l17.8,55.57s-63.13,36.15-77.7,31.3-35.07-83.1-40.46-113.85-21.86-113-22.39-117.36S3175.28,1649.31,3182.83,1645Z"/></clipPath><clipPath id="clip-path-24"><path class="cls-11" d="M3165.9,1558.27c-10.28,3.42-6.63,8.57-.6,21.83,5.23,11.51,15.81,34.54,24.24,31.53s.46-19.18-3.66-30.13S3177.77,1554.32,3165.9,1558.27Z"/></clipPath><clipPath id="clip-path-25"><path class="cls-11" d="M3151.77,1573.23c-10.3,3.4-7.12,7.36-2.21,17.77,4.25,9,12.88,27.09,21.33,24.14s1.87-15.6-1.34-24.25S3163.64,1569.31,3151.77,1573.23Z"/></clipPath><clipPath id="clip-path-26"><path class="cls-11" d="M3136.77,1583.61c-7.41,3.38-5.89,6.85-.77,14.16,4.44,6.35,13.41,19,19.47,16.13s-.64-11.72-4.23-17.87S3145.31,1579.71,3136.77,1583.61Z"/></clipPath><clipPath id="clip-path-27"><path class="cls-11" d="M3210.71,1608.69c-3.73-10.42-8.63-22.63-16.67-21.7s-30.94,2.15-31.1,11.19,21.87,8.51,22.7,12.45-9.47,14.87-4.75,32.4,15.17,19.45,25.66,7S3215.49,1622,3210.71,1608.69Z"/></clipPath><clipPath id="clip-path-28"><path class="cls-12" d="M3368.71,1599.94s-40.46,20-60.43,32.38-25.09,58.54-31.56,90.91-9.71,57.47.81,87.41,41.27,99.55,24.28,177.25c-70.42-.81-210.43,18.61-305.93,61.51-21.05,42.89,5.66,98.74,21.85,110.07,85.79,7.28,399.81,4.85,399.81,4.85l93.08-76.07s-2.43-77.7-10.52-143.26,9.71-143.25,11.33-233.09S3421.59,1597,3421.59,1597Z"/></clipPath><clipPath id="clip-path-29"><path class="cls-8" d="M3250.23,1828.1l51.58,159.79s83.37,68.86,210.68,2.66c38.71,104.9-33.61,184.34-33.61,184.34s-279.06,58.06-285.17,53-238.33-28.52-238.33-28.52l8.15-139.54Z"/></clipPath><clipPath id="clip-path-30"><path class="cls-4" d="M3266.2,1842.39s-1.26,47.57-3.69,48.38-208,29.94-216.9,37.23-26.71,45.32-25.9,57.46,1.61,33.18,3.23,41.28,23.11,36.51,28.15,31.83,7.19-22.66,4-38.49,11.15-24.46,10.43-55c28.42-4,124.82-2.16,171.58-3.24s72.3,4.67,80.21-16.55,11.87-82.37,16.19-103.59a267.16,267.16,0,0,1-40.9,2.23C3277.1,1843.65,3266.2,1842.39,3266.2,1842.39Z"/></clipPath><clipPath id="clip-path-31"><path class="cls-13" d="M3308.28,1638.79c14.75-.17,33.81,15.47,36.69,74.82s-.72,136.33-.72,136.33-38.49,37.41-86.33.36c3.24-62.23,4.68-100,7.92-126.26S3277.71,1639.15,3308.28,1638.79Z"/></clipPath><clipPath id="clip-path-32"><path class="cls-14" d="M3346.77,1421.8s-16.55-12.23-9.35-38.85,30.21-42.09,54.31-36.69c27.7-13.31,77-17.27,110.07,10.43s48.92,60.07,43.53,121.58-5.4,145.68-1.8,182.37,8.27,70.87,8.27,70.87-80.21,52.51-170.14,2.51c2.52-67.62,10.07-100.35,19.79-135.61s11.15-82-1.08-104S3346.77,1421.8,3346.77,1421.8Z"/></clipPath><clipPath id="clip-path-33"><path class="cls-4" d="M3345.33,1411s-4.31,20.14-5,36.69-20.15,34.89-20.15,41.72,11.87,14,11.87,14,1.44,32.73,3.6,47.48,18,14.75,35.25,11.15,45.32-18.34,50.72-41.72c21.94-7.92,22.3-31.3,20.14-43.17s-23-16.18-25.9,1.08-3.59,22.3-3.59,22.3,1.8-37.77-3.24-47.48S3366.55,1430.07,3345.33,1411Z"/></clipPath><radialGradient id="radial-gradient-3" cx="3389.58" cy="1501.02" r="16.55" xlink:href="#radial-gradient"/><clipPath id="clip-path-34"><path class="cls-10" d="M3343.66,1523.57c.86-4,28.5-3.35,30.56.09s-8.94,11.94-18.54,11.46S3343.06,1526.37,3343.66,1523.57Z"/></clipPath><clipPath id="clip-path-35"><rect class="cls-6" x="3262.96" y="2243.64" width="55.04" height="390.1"/></clipPath><clipPath id="clip-path-36"><path class="cls-15" d="M3623.12,1547.61H3492.81c-36.42,0-74.46,36.42-57.46,157.82s38.85,280.84,8.09,348c-27.23,59.49-61.44,81.53-68.92,85.79h-344a28.74,28.74,0,0,0,0,57.47h520.95a28.74,28.74,0,0,0,28-22.3h0c14.75-27.34,33.9-110.43,42.81-209.17s34.8-141.64,52.6-260.61S3650.63,1547.61,3623.12,1547.61Z"/></clipPath></defs><title>09</title><g id="_09" data-name="09"><rect id="_09-2" data-name="09" class="cls-5" width="4680" height="3120"/><path class="cls-20" d="M1849.11,2601.6s-2-95.52-63-87.39-81.29-16.26-87.39-54.87-30.49-74.18-94.5-49.8-62.5-38.1-118.9-57.92-123.46,0-134.13,48.78c-109.75-27.44-138.71-19.82-179.87,10.67s-24.39,70.11-24.39,70.11-38.1,21.34-39.63,96S1192.66,2687,1192.66,2687Z"/><path class="cls-1" d="M1502,2654.1s65.18-62.06,96.24-223.42-41.84-297.93-103.9-336.73-71.38,37.23-32.61,139.64,64.36,214.14,48.82,306.46S1477.16,2658,1477.16,2658Z"/><g class="cls-21"><path class="cls-22" d="M1486.47,2675.82s45-48.1,73-232.74S1499,2171.53,1499,2171.53"/></g><path class="cls-2" d="M1426,2665.46s36.22-73.44,26.93-224.46-63.05-278.28-140.62-378.63-146.86-143.81-191.35-106.58,17.56,143.79,69.27,204.83,121,153.12,147.88,247.25,38.25,188.28,25.82,257.58C1392.85,2669.6,1426,2665.46,1426,2665.46Z"/><g class="cls-23"><path class="cls-22" d="M1393.37,2694.42s68.3-176.87,10.92-367.74-221.83-324.33-221.83-324.33"/></g><path class="cls-20" d="M3485.16,2670.19s134.14-51.82,93-121.94-10.67-88.41-10.67-134.13-54.87-120.42-134.13-80.79-108.23,44.2-189,41.16-111.28-6.1-186,73.16S3015.69,2601.6,2913.56,2597C3078.18,2627.51,3485.16,2670.19,3485.16,2670.19Z"/><path class="cls-24" d="M1421.53,607.44s26-42.78,163.47-61.11,328.46,63.4,537.76,38.95S2743,309.53,3036.35,369.11"/><path class="cls-9" d="M2240,2253.89c430.29,15.48,938.84-103.59,1184.88-534.16s265.46-751.07,100.36-1045.67-501.8-382-815.82-242.81S2107.22,687,1887.08,599.6s-563.31-97.13-760.79,213.66-155.39,786.68,80.94,1023S1790,2237.7,2240,2253.89Z"/><g class="cls-25"><path class="cls-26" d="M969.32,1618.8s345.27,513.32,1130.52,455.26,1133.59-339.15,1399.41-174.16c94.72-58.05,33.61-128.33,33.61-128.33s-433.87-24.44-864.7,140.55-1158,70.28-1411.63-186.38-290.27-464.43-290.27-464.43Z"/><path class="cls-26" d="M996.82,1007.7s113,421.66,818.87,440,977.75-342.21,1417.74-427.77,488.87-42.77,488.87-42.77l-79.44-168s-333.05,9.16-861.64,265.82-1182.47,284.16-1439.13,39.72-247.5-354.43-247.5-354.43Z"/><path class="cls-26" d="M1204.59,503.55s126,394.61,524.36,428S2992,280.5,2992,280.5l-152.77-12.22S2539.83,583,2139.57,748,1427.64,781.6,1271.81,506.6C1146.54,375.22,1204.59,503.55,1204.59,503.55Z"/></g><rect class="cls-27" x="1312.79" y="638.77" width="1949.98" height="1307.09" rx="87.14"/><rect class="cls-28" x="1336.72" y="657.87" width="1949.98" height="1307.09" rx="87.14"/><rect class="cls-29" x="1389.6" y="706.38" width="641" height="473.47" rx="52.07"/><rect class="cls-30" x="1433.04" y="748.88" width="330.21" height="43.7" rx="21.85"/><rect class="cls-30" x="1433.04" y="975.49" width="330.21" height="43.7" rx="21.85"/><rect class="cls-5" x="1504.26" y="824.15" width="464.56" height="22.66" rx="11.33"/><rect class="cls-5" x="1504.26" y="875.14" width="464.56" height="22.66" rx="11.33"/><rect class="cls-5" x="1504.26" y="926.12" width="464.56" height="22.66" rx="11.33"/><rect class="cls-5" x="1504.26" y="1056.43" width="464.56" height="22.66" rx="11.33"/><rect class="cls-5" x="1504.26" y="1107.42" width="464.56" height="22.66" rx="11.33"/><rect class="cls-29" x="2088.87" y="705.62" width="1139.55" height="473.47" rx="69.42"/><rect class="cls-29" x="1389.6" y="1236.55" width="641" height="678.5" rx="62.33"/><rect class="cls-29" x="2088.87" y="1236.55" width="541.18" height="678.5" rx="41.55"/><rect class="cls-29" x="2687.96" y="1236.12" width="541.18" height="678.5" rx="41.55"/><path class="cls-31" d="M2161.24,863.09s126.92,38.09,153.71,45.42c104.35-2.93,200.24-13.92,200.24-13.92s122.68,43.95,122.68,41.76,121.27-33,121.27-33l95.89-1.46,217.16-82.78,69.1,16.11V1110H2160.54Z"/><path class="cls-31" d="M2159.13,979.93s132.55,25.64,150.88,24.18,115.63-12.09,149.48-5.5S2573.71,1025,2573.71,1025l229.85-108.42,46.54,15.75s181.9-57.14,193.18-56S3115.2,903.75,3118,906s0,202.79,0,202.79H2160.54Z"/><path class="cls-31" d="M2159.83,1038.9s39.49,5.76,86,10.24,189-20.48,220-22.4,128.33,21.12,150.89,23,232.67-87.07,308.82-88.35,128.32,10.89,159.34,7.69,62-20.49,62-20.49V1110H2160.54Z"/><rect class="cls-18" x="2152.78" y="771.89" width="12.69" height="341.37"/><rect class="cls-18" x="2655.83" y="603.79" width="13.61" height="1019.35" transform="translate(3776.1 -1549.17) rotate(90)"/><rect class="cls-32" x="2133.12" y="1294.01" width="188.58" height="80.12" rx="14.16"/><rect class="cls-32" x="2354.07" y="1319.1" width="229.04" height="28.33" rx="14.16"/><rect class="cls-32" x="2133.12" y="1434.84" width="188.58" height="80.12" rx="14.16"/><rect class="cls-30" x="2133.12" y="1577.01" width="445.68" height="304.58" rx="33.05"/><rect class="cls-32" x="2354.07" y="1459.93" width="229.04" height="28.33" rx="14.16"/><rect class="cls-18" x="2743.36" y="1302.91" width="206.38" height="59.89"/><rect class="cls-6" x="2743.36" y="1417.03" width="264.92" height="59.89"/><rect class="cls-13" x="2743.36" y="1531.15" width="316.72" height="59.89"/><rect class="cls-30" x="2743.36" y="1645.27" width="428.95" height="214.75" rx="31.29"/><path class="cls-33" d="M3032.87,1352.92v-3.28l4.19-4.07c10.07-9.58,14.62-14.68,14.68-20.63,0-4-1.94-7.71-7.83-7.71a13.4,13.4,0,0,0-8.37,3.34l-1.7-3.76a17.3,17.3,0,0,1,11.17-4c8.49,0,12.07,5.83,12.07,11.47,0,7.29-5.28,13.17-13.59,21.18l-3.16,2.92v.12h17.72v4.43Z"/><path class="cls-33" d="M3090.22,1332.77c0,13.41-5,20.82-13.71,20.82-7.71,0-12.93-7.23-13.05-20.27,0-13.23,5.7-20.52,13.71-20.52C3085.49,1312.8,3090.22,1320.21,3090.22,1332.77Zm-21.42.61c0,10.25,3.15,16.08,8,16.08,5.46,0,8.07-6.37,8.07-16.45,0-9.71-2.49-16.08-8-16.08C3072.2,1316.93,3068.8,1322.64,3068.8,1333.38Z"/><path class="cls-33" d="M3112.92,1324.58c0,8.31-4.37,12.44-9.47,12.44-4.91,0-9.16-4-9.22-11.9s4.31-12.32,9.53-12.32C3109.28,1312.8,3112.92,1317.05,3112.92,1324.58Zm-14.44.36c-.12,5,1.76,8.86,5.09,8.86,3.52,0,5.1-3.76,5.1-9,0-4.79-1.39-8.8-5.1-8.8C3100.24,1316,3098.48,1320,3098.48,1324.94Zm4.61,28.65,23.18-40.79h3.4l-23.18,40.79Zm35.5-12.69c0,8.32-4.37,12.44-9.41,12.44s-9.16-3.94-9.22-11.83,4.31-12.38,9.53-12.38C3135,1329.13,3138.59,1333.38,3138.59,1340.9Zm-14.44.37c-.06,5,1.88,8.86,5.16,8.86,3.52,0,5.09-3.77,5.09-9,0-4.79-1.39-8.79-5.09-8.79C3126,1332.35,3124.15,1336.29,3124.15,1341.27Z"/><path class="cls-33" d="M3056.27,1460.1a17.82,17.82,0,0,0,8.74,2.48c6.85,0,9-4.36,8.92-7.64-.06-5.52-5-7.89-10.2-7.89h-3v-4h3c3.89,0,8.8-2,8.8-6.67,0-3.16-2-5.95-6.92-5.95a14.54,14.54,0,0,0-7.89,2.61l-1.39-3.88a18.71,18.71,0,0,1,10.31-3c7.77,0,11.29,4.61,11.29,9.41,0,4.06-2.43,7.52-7.28,9.28v.13c4.85,1,8.8,4.61,8.8,10.13,0,6.31-4.92,11.83-14.38,11.83a20,20,0,0,1-10.26-2.67Z"/><path class="cls-33" d="M3112.34,1446.08c0,13.41-5,20.81-13.71,20.81-7.71,0-12.93-7.22-13.05-20.27,0-13.23,5.71-20.51,13.72-20.51C3107.61,1426.11,3112.34,1433.52,3112.34,1446.08Zm-21.42.6c0,10.26,3.16,16.09,8,16.09,5.46,0,8.07-6.38,8.07-16.45,0-9.71-2.48-16.08-8-16.08C3094.32,1430.24,3090.92,1435.94,3090.92,1446.68Z"/><path class="cls-33" d="M3135,1437.89c0,8.31-4.37,12.44-9.46,12.44-4.92,0-9.17-3.95-9.23-11.9s4.31-12.32,9.53-12.32C3131.4,1426.11,3135,1430.36,3135,1437.89Zm-14.44.36c-.12,5,1.76,8.86,5.1,8.86,3.52,0,5.09-3.76,5.09-9,0-4.8-1.39-8.8-5.09-8.8C3122.36,1429.33,3120.6,1433.27,3120.6,1438.25Zm4.61,28.64,23.18-40.78h3.4l-23.18,40.78Zm35.5-12.68c0,8.31-4.37,12.44-9.4,12.44s-9.17-3.94-9.23-11.83,4.31-12.38,9.53-12.38C3157.13,1442.44,3160.71,1446.68,3160.71,1454.21Zm-14.44.36c-.06,5,1.88,8.86,5.16,8.86,3.52,0,5.1-3.76,5.1-9,0-4.79-1.4-8.8-5.1-8.8C3148.09,1445.65,3146.27,1449.6,3146.27,1454.57Z"/><path class="cls-33" d="M3105,1579.53v-10.74h-18.33v-3.52l17.6-25.18H3110v24.51h5.52v4.19H3110v10.74Zm0-14.93v-13.16q0-3.11.18-6.19H3105c-1.21,2.3-2.18,4-3.28,5.82l-9.64,13.41v.12Z"/><path class="cls-33" d="M3145.8,1559.38c0,13.42-5,20.82-13.72,20.82-7.71,0-12.93-7.22-13-20.27,0-13.23,5.71-20.51,13.72-20.51C3141.06,1539.42,3145.8,1546.82,3145.8,1559.38Zm-21.43.61c0,10.26,3.16,16.08,8,16.08,5.47,0,8.08-6.37,8.08-16.44,0-9.71-2.49-16.08-8-16.08C3127.77,1543.55,3124.37,1549.25,3124.37,1560Z"/><path class="cls-33" d="M3168.5,1551.19c0,8.32-4.37,12.44-9.47,12.44-4.92,0-9.17-3.94-9.23-11.89s4.31-12.32,9.53-12.32C3164.85,1539.42,3168.5,1543.67,3168.5,1551.19Zm-14.45.37c-.12,5,1.76,8.86,5.1,8.86,3.52,0,5.1-3.77,5.1-9,0-4.8-1.4-8.8-5.1-8.8C3155.81,1542.64,3154.05,1546.58,3154.05,1551.56Zm4.61,28.64,23.19-40.78h3.39l-23.18,40.78Zm35.51-12.68c0,8.31-4.37,12.44-9.41,12.44s-9.16-4-9.22-11.84,4.3-12.38,9.52-12.38C3190.58,1555.74,3194.17,1560,3194.17,1567.52Zm-14.45.36c-.06,5,1.88,8.86,5.16,8.86,3.52,0,5.1-3.76,5.1-9,0-4.79-1.4-8.8-5.1-8.8C3181.54,1559,3179.72,1562.9,3179.72,1567.88Z"/><circle class="cls-34" cx="2351" cy="1729.39" r="123.58"/><circle class="cls-35" cx="2362.33" cy="1729.39" r="123.58"/><circle class="cls-34" cx="2368.94" cy="1729.39" r="92"/><circle class="cls-36" cx="2358.12" cy="1729.9" r="92"/><path class="cls-37" d="M2352.79,1777.77c-4.53-1.48-8.73-2.42-12.54-4.2-8.74-4.06-14.72-10.67-16.65-20.37a16.06,16.06,0,0,1-.07-5.66c.57-3.36,4-6,7.57-6.17,4.22-.22,7.07,1.58,8.35,5.25,1,2.87,1.84,5.82,3.08,8.58,2,4.39,5.48,7.11,10.3,8.51.08-.88.19-1.54.21-2.2.21-8.6.36-17.2.65-25.79.06-1.63-.5-2.18-2-2.69a98.66,98.66,0,0,1-11-4.36c-10.3-5.09-14.82-13.48-13.85-25.17.88-10.71,7.26-18.82,17.66-22.06,3.31-1,6.79-1.52,10.55-2.33a55.66,55.66,0,0,1,.26-7.23,6.62,6.62,0,0,1,2-4c2.28-1.74,5.6,0,5.8,3.06.19,2.79-.08,5.61-.14,8.37,3.69,1,7.23,1.67,10.49,3,8.47,3.47,13.78,9.81,15.56,18.84a7.8,7.8,0,0,1-5.89,9.21c-4.51,1.11-8.31-1-9.86-5.53a38.86,38.86,0,0,0-2.28-5.93c-1.67-3-4.39-5-8-6.2-.08.85-.19,1.56-.21,2.26-.19,7.45-.33,14.91-.59,22.37-.06,1.65.41,2.41,2.06,2.87,3,.83,5.94,1.87,8.86,3,10.29,3.84,16.87,11,17.86,22.09,1.06,11.94-3.59,21.39-14.09,27.6a31.64,31.64,0,0,1-13.85,4.2c-1.69.13-2.35.65-2.33,2.45,0,3.27-.11,6.55-.39,9.8-.25,3-1.49,4.06-3.94,4s-3.79-1.3-3.85-4.14C2352.48,1785.24,2352.71,1781.37,2352.79,1777.77Zm8.53-13.33c7.68-.75,13.38-6.33,13.79-13.39.42-7.23-4.34-12.53-13.13-14.46Zm-6.76-72.12c-7.65,1.53-11.52,5.43-11.71,11.68s3.61,10.57,11.13,12.62Z"/><path class="cls-38" d="M2350.06,1777.74c-4.53-1.48-8.73-2.42-12.55-4.19-8.73-4.07-14.71-10.68-16.64-20.38a16.06,16.06,0,0,1-.07-5.66c.57-3.36,4-6,7.57-6.17,4.22-.22,7.07,1.58,8.35,5.25,1,2.87,1.84,5.82,3.08,8.58,2,4.39,5.48,7.11,10.3,8.51.08-.88.19-1.54.2-2.2.22-8.6.37-17.2.66-25.79.06-1.62-.5-2.18-2-2.69a96.77,96.77,0,0,1-11-4.36c-10.3-5.09-14.82-13.48-13.85-25.17.88-10.71,7.26-18.81,17.65-22,3.32-1,6.8-1.53,10.56-2.34a57.43,57.43,0,0,1,.25-7.23,6.66,6.66,0,0,1,2-4c2.28-1.74,5.6,0,5.8,3.07.19,2.79-.08,5.61-.14,8.36,3.69,1,7.23,1.67,10.49,3,8.47,3.47,13.78,9.81,15.56,18.84a7.79,7.79,0,0,1-5.9,9.21c-4.5,1.11-8.3-1-9.86-5.52a37.55,37.55,0,0,0-2.27-5.94c-1.68-3-4.39-5-8-6.2-.08.86-.19,1.56-.21,2.26-.19,7.46-.33,14.91-.59,22.37-.06,1.65.41,2.41,2.06,2.87,3,.83,5.94,1.87,8.86,3,10.29,3.84,16.87,11,17.86,22.09,1.06,12-3.59,21.39-14.1,27.6a31.56,31.56,0,0,1-13.84,4.2c-1.7.13-2.35.65-2.33,2.45,0,3.27-.11,6.55-.39,9.8-.25,3-1.49,4.07-3.95,4s-3.78-1.29-3.84-4.14C2349.75,1785.22,2350,1781.34,2350.06,1777.74Zm8.52-13.33c7.69-.75,13.39-6.33,13.8-13.39.41-7.23-4.34-12.52-13.13-14.46Zm-6.75-72.12c-7.65,1.53-11.52,5.44-11.71,11.68s3.61,10.57,11.13,12.62Z"/><ellipse class="cls-16" cx="2370.19" cy="2679.07" rx="1238.09" ry="80.93"/><g class="cls-39"><path class="cls-20" d="M1188.55,2624.05s-32.08,47.36,18.33,58.82,605.75,45.07,1189.35,51.18,1156.49-7.64,1164.13-97.78c71.81,22.92,61.11,77.92,61.11,77.92l-635.54,85.55L2020.4,2812l-883-53.47-62.64-94.72Z"/><ellipse class="cls-20" cx="1611.73" cy="2666.83" rx="342.98" ry="25.97"/><ellipse class="cls-20" cx="3124.19" cy="2666.83" rx="361.31" ry="25.97"/><ellipse class="cls-20" cx="2759.06" cy="2643.91" rx="161.18" ry="25.97"/></g><path class="cls-40" d="M2625.74,2609.47v26.69c0,7.68,52.42,13.91,117.08,13.91s117.09-6.23,117.09-13.91v-26.69Z"/><ellipse class="cls-41" cx="2742.82" cy="2609.47" rx="117.08" ry="13.91"/><rect class="cls-17" x="2723.4" y="1907.49" width="38.85" height="707.9"/><g class="cls-42"><path class="cls-43" d="M2699.48,2022.88s75.63-35.9,75.63,142.85V1897.61l-79.45,10.69Z"/></g><ellipse class="cls-40" cx="2742.82" cy="1902.43" rx="608.63" ry="47.15"/><ellipse class="cls-44" cx="2742.82" cy="1883.43" rx="608.63" ry="47.15"/><polygon class="cls-45" points="2676.14 1829.62 2675.81 1838.75 2972.48 1838.75 2984.21 1834.65 2697 1828.83 2676.14 1829.62"/><path class="cls-46" d="M2640.64,1598l-7.44-8.11-15.56,8.79,58.17,240.09,17.24-4.4s11.84-7.77,12.51-9.8S2640.64,1598,2640.64,1598Z"/><polygon class="cls-14" points="2984.21 1834.35 2693.05 1834.35 2633.2 1589.87 2924.35 1589.87 2984.21 1834.35"/><polygon class="cls-9" points="2963.92 1820.22 2706.42 1820.22 2653.49 1604 2910.98 1604 2963.92 1820.22"/><g class="cls-47"><path class="cls-5" d="M2773.58,1562.27c-3.06,4.58-85.79,311.22-85.79,311.22l40-4.14L2801.08,1573Z"/><path class="cls-5" d="M2843.85,1562.27c-3,4.58-85.79,311.22-85.79,311.22l67-16.37,73.33-296.38Z"/></g><rect class="cls-48" x="2693.05" y="1832.98" width="438.25" height="29.76"/><path class="cls-18" d="M1782.23,2516s.8,50.08,2.41,52.48,99.62,28.85,108.84,38.47,6,54.48,6,54.48l-206.73-2s-2.41-12.42-2.41-39.66,16-50.48,16-50.48l-.8-53.29Z"/><g class="cls-49"><path class="cls-4" d="M1683.54,2566.08l22.84,3.21s29,17.62,78.26-.81c8.41-9.61,9.48-71.31,9.48-71.31l-99,5.21Z"/><polygon class="cls-50" points="1683.14 2648.21 1911.11 2648.21 1911.11 2672.65 1686.35 2665.84 1683.14 2648.21"/></g><path class="cls-19" d="M1808.3,1663.25l7.46,23.63S1837.5,2010,1836,2110s-23.88,409-23.88,409-71.65,40.3-140.31-10.45c6-120.91,16.42-286.59,11.94-359.73s-24-126-24-126l27.16-351.08Z"/><g class="cls-51"><path class="cls-52" d="M1761.45,1780.74s-51.94,77.15-51.18,172.63,13,160.41,9.17,252.84-23.68,338.4-23.68,338.4-35.14-13-38.2-22.92,6.12-113.05,6.12-113.05l6.87-258.95-42-100.83,13.75-132.15,40.48-132.92Z"/></g><path class="cls-18" d="M1438,2476.47s-23,58.77-20.82,63.47,15.83,37.21,37.64,45.34,39.56,45.12,14.75,76.55c-45.33,6.2-76.48,5.56-104.7-18.39s-69-65.86-69-79,26.51-59.58,52.74-60.44c13.4-30.79,25.81-70.45,25.81-70.45Z"/><g class="cls-53"><path class="cls-4" d="M1316.43,2485.2c-.29,4.28,32.21,18.82,32.21,18.82s11.69,44.48,68.57,35.92c15.26-12.83,27.23-49,27.23-49l-81.54-38.2Z"/><path class="cls-50" d="M1292.48,2549.07c0,.85,52.74,71.85,82.11,89.81s52.18,21.1,104.07,14c-2.29,10-12.55,16.82-12.55,16.82L1398,2668l-59-28.8s-54.46-66.71-54.46-65S1292.48,2549.07,1292.48,2549.07Z"/></g><path class="cls-3" d="M1726.83,1672.24s-42.74,270.86-69.61,385.79-29.9,112.38-48.56,155.66S1455.85,2510,1455.85,2510s-69.65,13.93-121.4-71.65c56.72-100.5,152.25-322.41,154.24-344.3s20.21-423.83,20.21-423.83Z"/><g class="cls-54"><path class="cls-55" d="M1594.93,1749.42l.76,40.48s67.22,13,58.82,93.2-26,210.82-37.43,255.89-191,375.83-187.91,376.59,35.9,6.11,35.9,6.11l187.15-362.07,59.58-220.76V1780.74Z"/></g><path class="cls-56" d="M2135.89,1150.44s31.51,5.64,31.76,7.24-1.31,9.94-10.07,9.43-21.4-2.82-21.4-2.82,20.78,6.87,20.43,10.18-6.23,8.92-18.54,4.11-24.74-8.13-24.74-8.13l2.46-20.3Z"/><path class="cls-56" d="M2119.81,1140.42s34.28-4,44.32-4,9.8,10.68,2.29,13.22-47.6,4.34-47.6,4.34Z"/><path class="cls-4" d="M2082.37,1250.42c-19.33-7.46-15.11-17.76-11.7-28.1s26.61-78.5,29.95-85.55,54.2-29.76,61.46-27.58,5.47,14.49-2.52,17.83-31.78,11.32-34.81,18.07-5.24,45.92,0,56.66c13.43-1.81,23.46-13.16,37.28-13.18s20.24,10.31,12.73,14-19.55,12.27-31.66,24.25-36.15,27-36.15,27S2101.35,1257.74,2082.37,1250.42Z"/><g class="cls-57"><path class="cls-11" d="M2073.62,1235.59s14.51,8.91,36.16,0,33.35-21.64,46.08-28a248.29,248.29,0,0,1,27-11.2l-8.15,12.47-40.48,40.74-29.54,15.79s-3.31,2.55-12-4.33S2073.62,1235.59,2073.62,1235.59Z"/><path class="cls-11" d="M2168.76,1116.34s-3.73,6.11-12.9,9-29,11.54-32.25,17.31-4.24,19.69-3.9,32.59,5,26.51,5,26.51,5-5.12,4.8-9.53,4.07-44.3,4.07-44.3,29.2-18.85,30.56-20.37S2168.76,1116.34,2168.76,1116.34Z"/></g><path class="cls-5" d="M2054.7,1232.68l11.51-16.19s16.73,8.64,27.34,19.07,12,27.52,12,27.52l-13.85,18.34Z"/><path class="cls-58" d="M1773.77,1167.21l12.23-6.83s18.88,2.16,40.65,30.75,121.94,166,121.94,166,80.93-94.42,104.67-128.42c25.36,8.64,42.63,29.68,42.09,49.1-23.74,55-100.36,186.69-143.53,189.39-52.28,3.27-154.31-134.35-154.31-134.35Z"/><path class="cls-5" d="M1708.18,1125.19s61.34,28.65,85.83,34.67,25.73,37,29.17,53.72,5.59,156.3,3.56,259.66,5.15,303.14,5.15,303.14-30.08,32.35-92.07,18.07c-78.83,12.13-150,6.07-243.8-55.83,10.75-90.9,29.28-216.89,30.5-278.91s-11.57-227.22-3.72-267.4,44.23-56,111.65-72.87C1678.23,1129.46,1708.18,1125.19,1708.18,1125.19Z"/><g class="cls-59"><path class="cls-8" d="M1673.8,1144.54l16.75,29.78L1700,1177l16.68,110.61,31.54,46.94s16.53-52.06,16.69-54.34-44.51-104.71-44.51-104.71l4.2-8.9-6.74-35.31-26.38-4.51Z"/><path class="cls-6" d="M1590.66,1114.34s56.42,32.61,97.74,89.78,60,94.47,59.68,121.56,4.28,322.79-8.26,468.77c-39.06,53.41-158.73,24.17-158.73,24.17l-111.85-23.29,8.87-285.84,18.15-374.28Z"/><g class="cls-60"><path class="cls-61" d="M1569,1178.81s20.62,113.82,14.51,193.26,5.35,165.76,97.77,210.06,118.4,81.74,118.4,81.74l-31.31,73.33-15.28,20.62-30.56-5.35,12.23-86.31s-128.84-35.65-188.93-73.84-60.61-66.2-61.11-67.73,21.38-165.51,27.49-178.24S1569,1178.81,1569,1178.81Z"/><path class="cls-61" d="M1579.9,1122.54l57.55,103.12s25-7.13,26.23-2-21.14,9.93-21.14,9.93,102.61,91.41,111,118.91c-2.8-48.89-32.34-101.59-32.34-101.59l-70.28-103.63-37.17-38.2Z"/><path class="cls-3" d="M1581.88,1117.66s55.87,92.7,56.7,103.61c45.69-9.23,33.55,3.7,33.55,3.7l-18.88,7.69s80,47.1,98.54,115.95c7.65-69.93-30.24-175.15-32.58-179.75s-119.6-75.07-119.6-75.07Z"/><path class="cls-3" d="M1582.27,1577.85s40,15.59,114,15.61l-2.11,14.64s-60.74,8.15-115.64-15.81C1578,1584.7,1582.27,1577.85,1582.27,1577.85Z"/></g><path class="cls-7" d="M1761.84,1124.56l-14.14,175.93-7.25,503.87s19.25,10.22,75.9-5.45,36.27-74.31,35.42-77.32-18.48-550.53-18.48-550.53S1801.34,1124.91,1761.84,1124.56Z"/><g class="cls-62"><path class="cls-63" d="M1781.82,1148.51c0,.76,6.88,77.66,6.88,77.66h-13.24l9.67,2.8-37.94,109.49s-5.35-71-4.84-73.59S1749,1156.4,1749,1156.4s1.79-17.82,4.08-16.8S1781.82,1148.51,1781.82,1148.51Z"/><path class="cls-64" d="M1757,1127.85l20.32,14.59,7.79,80.4-18.3,2,16.23,7.07s-26.57,48-33.84,95.17C1732,1208.87,1757,1127.85,1757,1127.85Z"/></g></g><path class="cls-6" d="M1708.33,1106.81A130.12,130.12,0,0,0,1731,1114c.18,18.42,1.08,44.27,1.08,44.27l-21.53-30.31-5-6.11Z"/><path class="cls-4" d="M1641.32,1055.11s3.38,3.92,3,8.65-3.7,33.35-3.7,33.35l-2.73,21.9s28.53,30.12,67.21,36.79c8.19-16.91,5.93-23.74,5.93-23.74l4.86-40.17-25.39-39.11Z"/><g class="cls-65"><path class="cls-11" d="M1642.54,1066.22s3.91-15.1,19.44,7.3,41.76,35.14,55.25,35.14c6.37-18.84-22.66-24.7-22.66-24.7l-31.32-40.23-20.62,6.37S1634.31,1058.16,1642.54,1066.22Z"/></g><path class="cls-6" d="M1640.66,1091.7s11,13.45,49.17,16.86a336.8,336.8,0,0,0,.23,49.28s-41.55-11.94-56.39-38.09C1635.08,1110.41,1640.66,1091.7,1640.66,1091.7Z"/><path class="cls-8" d="M1779.74,941.29s34.71-3.06,43-29.68-9.89-42.8-26.79-43c11.69-14.75,2.87-35.25-9.54-39.93s-31.65,0-36.87,10.61c-17.26-25-55.93-39.93-76.61-31.29s-19.43,28.59-19.43,28.59-32.73-8.27-46.76,13.31-.54,34.89-.54,34.89-22.3,7.38-21.58,27.16,19.6,27.52,19.6,27.52,3.24,25.36,10.43,59.89,29.14,60.07,29.14,60.07l25.54-8.63Z"/><g class="cls-66"><path class="cls-67" d="M1596.54,986.79s11.71,21.64,30.81,5.6,21.64-55.5,39.47-60.6,15.78,11.72,31.06-1.27,29.79-24.44,59.33-5.09,70.27-2,71.29-5.6-26,32.84-26,32.84l-36.16,13-35.64,8.4-39,59.33s-24.7,49.9-34.38,49.39-26.73-.76-33.1-7.63-17.82-16.3-18.07-30.56S1596.54,986.79,1596.54,986.79Z"/><path class="cls-67" d="M1576.83,906.48s12.22,21.3,32,28.09c-1.53,4.42-4.67,5.18-4.67,5.18L1578,927.19Z"/><path class="cls-67" d="M1599.26,857.27s2.2,12.23,9.33,19.69,12,8.24,12,8.24-3.13,2-14.42-.39-10.28-14-10.28-14Z"/><path class="cls-67" d="M1805.33,843.69a30.87,30.87,0,0,1-1.59,8,37.6,37.6,0,0,1-14.7,19.54c8.65-2.67,12.22-6.11,12.22-6.11Z"/></g><path class="cls-4" d="M1784.12,938.29v89.29c0,31.84-11.42,77.61-61.33,74.37s-70.33-62.76-70.33-62.76-22.66-5.67-22.66-36.16,26.71-22.39,28.33-7.82l2.16,19.43,4.58,1.34s8.37-38.57,11.34-64.74c1.07-10,12.67-6.48,22.66-4.59s18.21-14.57,30.08-15.11S1754.71,952.32,1784.12,938.29Z"/><g class="cls-68"><circle class="cls-69" cx="1688.35" cy="1027.4" r="18.08"/><circle class="cls-70" cx="1789.42" cy="1027.4" r="18.08"/><path class="cls-10" d="M1704.91,1052.65c1.44-6.67,47.59-5.59,51,.16s-14.94,19.92-31,19.12S1703.91,1057.33,1704.91,1052.65Z"/><g class="cls-71"><path class="cls-5" d="M1706,1043.84c-.16.3,1,9.22,4.26,11.36s29.13,3.38,36,1.29,9.89-8.41,9.89-8.41Z"/></g><path class="cls-11" d="M1667.33,995.79s7.63-12.39,9.5-24.95,3.61-23.9,12.9-20.65,20.69.89,28.84-8.28,18.65-4.32,34.63,3.57,32.59-4.58,32.59-4.58l.06-8.53-26.54,3.5-29.92-13.5-26,18.46L1674,938l-9,45.39Z"/></g><polygon class="cls-18" points="1786.72 1387.36 1998.77 1424.59 1932.4 1769.37 1731.68 1740.23 1786.72 1387.36"/><path class="cls-4" d="M1691.85,1548.84s29.38-1.74,46-.52,39.87,3.34,48.61,4.75,6.27,11.6-9.63,10.18-19.91.2-19.91.2,35.26,18.73,43.4,21.84,37.26,27.52,31.11,34.35-24.62-10-30.44-15.34-38.84-15.73-38.84-15.73,28.29,20.54,33.79,24.85,34.71,30.21,28.32,37.49-30.14-19.21-37.41-25.6-26-14.46-26-14.46,16.47,20.09,21.73,24.85,26.3,17.77,24.39,22.51-15.85,2.33-30.43-9.31-27.59-21.89-27.59-21.89,6.62,17.53,13.36,22.2,22.43,11.44,19.28,15.82-19.91.21-27.79-4.49-26.38-19.25-42.76-31.83-39.74-36.24-39.74-36.24Z"/><g class="cls-72"><path class="cls-11" d="M1693.72,1585.19s-9.17,9.16,4.08,25.71,47.61,40.23,53,44.82,20.37,11.71,20.37,11.71-15.28-1-17.06-3.31-25.72-14.77-25.72-14.77l-55-53.47Z"/><path class="cls-11" d="M1790.48,1663.61c0-1.27-25.85-20.24-25.85-20.24L1748.89,1627s15.74,11.39,23.38,16,31.58,18.46,31.58,18.46Z"/><path class="cls-11" d="M1815.43,1653.81l-26.35-22.28-9.42-7.39-18.87-13.29s18.61,5.91,26.76,11.77,14.39,14.64,22.28,21.26,8,9.29,8,9.29Z"/><path class="cls-11" d="M1824,1625.42l-28.26-19.35-33.59-17.5S1794,1597,1801.74,1603s18.53,16.61,23,19.35A2,2,0,0,1,1824,1625.42Z"/><path class="cls-11" d="M1794.42,1558.45s-7.38,3.31-14.13,2.8-19.33-.69-23.41,2.2c7.63,1.11,18.32,2.39,18.32,2.39l11.84.25Z"/></g><path class="cls-5" d="M1693.55,1536.63l17.36,10.17s1.62,13-8.9,31.56-25.9,25.09-25.9,25.09l-14.3-11.87Z"/><path class="cls-3" d="M1568.92,1162.72c26.52,26.08,21.67,89.3,17.35,125.63s-44.6,146.76-44.6,146.76l155.3,98.47s4.68,54.67-32.73,64c-57.92-29.49-198.56-89.92-223.74-116.18s70.86-286,79.85-304.67S1550.88,1145,1568.92,1162.72Z"/><g class="cls-73"><path class="cls-58" d="M1434.26,1419.68s-.51,42.27,35.65,67.22,217.45,104.91,217.45,104.91L1669,1606.58l-224.57-95.74s-11.21-30.56-12.74-31.07S1434.26,1419.68,1434.26,1419.68Z"/></g><ellipse class="cls-10" cx="1708.31" cy="988.47" rx="9.17" ry="11.6"/><ellipse class="cls-10" cx="1763.34" cy="988.47" rx="9.17" ry="11.6"/><path class="cls-10" d="M1709.93,959.6c10.18-.87,16.72,2.57,15.24,4.93s-6.34-2.36-15.92-1.38-17.53,3.46-18.34,2.47S1697.25,960.69,1709.93,959.6Z"/><path class="cls-10" d="M1762.62,959.6c-8.41-.87-13.82,2.57-12.59,4.93s5.23-2.36,13.14-1.38,14.49,3.45,15.16,2.47S1773.09,960.69,1762.62,959.6Z"/><path class="cls-10" d="M1744.59,991.7a125.42,125.42,0,0,1,7,11.86,133,133,0,0,1,5.78,12.52c.41,1.09.83,2.18,1.19,3.32.19.55.35,1.15.51,1.76.08.31.17.58.23.92l.17,1.09a4.64,4.64,0,0,1,0,1.3,6.73,6.73,0,0,1-.28,1.25,8.63,8.63,0,0,1-1,2,16.27,16.27,0,0,1-2.46,3,30.1,30.1,0,0,1-5.73,4.26,31.07,31.07,0,0,1-6.41,2.89c3.1-3.53,6.43-6.63,9.11-9.93a17.44,17.44,0,0,0,1.7-2.44,5.68,5.68,0,0,0,.47-1.09,1.92,1.92,0,0,0,.09-.41,1.7,1.7,0,0,0,0-.4l-.09-.6c0-.22-.12-.49-.17-.73-.12-.5-.25-1-.43-1.53-.3-1-.65-2.09-1-3.15-1.44-4.23-3-8.49-4.51-12.78S1745.83,996.15,1744.59,991.7Z"/><path class="cls-74" d="M1643.56,993c6.91-1.21,8.9,7.92,7.56,14.12s-3,10.16-1.8,12.86-1.71,5.67-5,4.23-5.84-6.66-6.74-13.76S1640,993.59,1643.56,993Z"/><path class="cls-11" d="M3011.54,2065.21l-7.75-12.31s-59.31,15.92-59.27,47.25c0,20.67,43.35,157,61.92,236.94s27.53,112.13,31.29,150.65-25.82,83.57-25.82,83.57-39.47,29.54-41.27,39.36,6.24,37.58,11.08,41.27,44.33-1,72.6-13.86,43.17-29.91,43.17-29.91l-2.59-39.51,17.31,32.56,15.36-6.25s1.78-38.65-.57-56-22.33-34.12-27-44.71-6.83-141.44-12.71-202.36-45.05-147-45.05-147l18.12-37.39Z"/><g class="cls-75"><path class="cls-76" d="M2998.39,2561l13.52,10.28c-.27-3.82-5.67-55,2.61-85.4,9.43-34.58,33.52-46.71,48.91-12.66,6,13.33,17.42,20.14,43.88,15.67,29.22,12.42,37.71,80.49,37.71,80.49s-3.8,40.84-6.84,43.81-43.14,37.5-64.19,44.52-87.93,27-93.7,17.68-20.51-40.68-19-50.8C2968.91,2572.81,2941.3,2615.27,2998.39,2561Z"/><path class="cls-77" d="M2962.19,2640s21.44,6.51,56.61-4.82,62.54-37,62.54-37l13.58-27.15s6.21,19.14,18.5,15.42,21.86-15.41,21.86-15.41l11.31,31.66-110.92,57.54-70.31,14.15Z"/></g><path class="cls-4" d="M3057.12,2095.18l-29.77-39.85s-59.59,8.5-80.46,35.72c-13.09,17.07-33.57,166-54,248.92s-27.23,116.92-42,154.29-64.23,64.32-64.23,64.32-51.48,7.8-57.86,16-12,37.72-9.12,43.5,42.48,20.94,75.43,23,55.17-6.32,55.17-6.32l16.33-37.7.92,38.54,17.54,1.8s20.08-34.75,26.09-51.89-4.94-42.44-4.33-54.51,60.81-133.75,84.21-192.81,27.21-157.68,27.21-157.68l48.47-2.93Z"/><g class="cls-78"><path class="cls-76" d="M2778.72,2542.45l7.94,16.13c1.55-3.65,20.81-53.53,43.1-77.44,25.38-27.23,54-26.56,52.4,12.41-.62,15.26,6.94,27.14,34.15,36,21.8,25.84-2.54,92.77-2.54,92.77s-23,35.77-27.31,37-58.75,13.33-82.06,9.44-96.19-18.45-97.25-29.84-.1-47.59,6.13-56.19C2745.17,2538.79,2698.79,2564.35,2778.72,2542.45Z"/><path class="cls-77" d="M2706.84,2597.43s17.23,16.56,56,23.43,76.9-3.3,76.9-3.3l25.79-18.35s-3.21,20.71,10.21,23.33,28.06-3.45,28.06-3.45l-4.34,34.76-132.55-1.56-73.39-21.58Z"/></g><path class="cls-11" d="M3182.83,1645c14.56-8.32,24,1.35,24,1.35s18,59.53,21.23,74.09,32.19,101.8,34.89,100.18,28.6-16.72,28.6-16.72l17.8,55.57s-63.13,36.15-77.7,31.3-35.07-83.1-40.46-113.85-21.86-113-22.39-117.36S3175.28,1649.31,3182.83,1645Z"/><g class="cls-79"><path class="cls-80" d="M3179.19,1723.42c0,1.53,27.06,137.36,53.1,147.58s41.88-7.15,43.92-9.19-2,25.53-2,25.53L3218,1914.4S3206.25,1921,3192,1872s-39.31-95.49-32.68-107.75S3179.19,1723.42,3179.19,1723.42Z"/></g><path class="cls-11" d="M3170.33,1662.2l30.14-7.06s13.58-18.45,11.45-31.93-6.87-24.75-10.1-34.46-10-40.62-13.78-57.53-7.54-20-13.76-16c-7,4.46,5.85,52.35,5.85,52.35s-44.6,17.29-45,30.51c-.45,13.55,13.4,42.27,17.59,48.7S3170.33,1662.2,3170.33,1662.2Z"/><path class="cls-11" d="M3165.9,1558.27c-10.28,3.42-6.63,8.57-.6,21.83,5.23,11.51,15.81,34.54,24.24,31.53s.46-19.18-3.66-30.13S3177.77,1554.32,3165.9,1558.27Z"/><g class="cls-81"><path class="cls-80" d="M3159.1,1559a50.35,50.35,0,0,0,8.68,20.08c6.56,8.77,23.92,11.75,25.28,14.13s7.83,11.66,6.64,13.45-29.36,5.19-29.36,5.19-7.49-8.34-9-16.68-5.79-24.43-5.79-26.64S3159.1,1559,3159.1,1559Z"/></g><path class="cls-11" d="M3151.77,1573.23c-10.3,3.4-7.12,7.36-2.21,17.77,4.25,9,12.88,27.09,21.33,24.14s1.87-15.6-1.34-24.25S3163.64,1569.31,3151.77,1573.23Z"/><g class="cls-82"><path class="cls-80" d="M3145.32,1574.83s3.23,11.83,8.68,20.08,10.12,8.85,16.93,6.38,9.45.43,7.66,5.54,5,12.51-8,12.59-16.08,0-20.42-11.06-3-11.83-6.3-22.3-5-12.51-4-12.51A44,44,0,0,1,3145.32,1574.83Z"/></g><path class="cls-11" d="M3136.77,1583.61c-7.41,3.38-5.89,6.85-.77,14.16,4.44,6.35,13.41,19,19.47,16.13s-.64-11.72-4.23-17.87S3145.31,1579.71,3136.77,1583.61Z"/><g class="cls-83"><path class="cls-80" d="M3129.06,1589.89a206.28,206.28,0,0,0,17.53,17c6.56,5.36,17.79,7.32,17.62,7.58s-12.6,2-12.6,2-10.55-.42-15.49-9.7A94.34,94.34,0,0,1,3129.06,1589.89Z"/></g><path class="cls-11" d="M3210.71,1608.69c-3.73-10.42-8.63-22.63-16.67-21.7s-30.94,2.15-31.1,11.19,21.87,8.51,22.7,12.45-9.47,14.87-4.75,32.4,15.17,19.45,25.66,7S3215.49,1622,3210.71,1608.69Z"/><g class="cls-84"><path class="cls-80" d="M3160,1596.44c4.77,3.58,12.43,8.51,19.41,9.37s16.51-2,9.53,16-5.11,32.68,1.7,38c-11.4-6.12-15.49-18.89-15.49-18.89s8-21.28,8.17-22.64-2.89,0-10.55-5.28a155.68,155.68,0,0,1-15.32-12.42Z"/></g><path class="cls-12" d="M3368.71,1599.94s-40.46,20-60.43,32.38-25.09,58.54-31.56,90.91-9.71,57.47.81,87.41,41.27,99.55,24.28,177.25c-70.42-.81-210.43,18.61-305.93,61.51-21.05,42.89,5.66,98.74,21.85,110.07,85.79,7.28,399.81,4.85,399.81,4.85l93.08-76.07s-2.43-77.7-10.52-143.26,9.71-143.25,11.33-233.09S3421.59,1597,3421.59,1597Z"/><g class="cls-85"><path class="cls-8" d="M3250.23,1828.1l51.58,159.79s83.37,68.86,210.68,2.66c38.71,104.9-33.61,184.34-33.61,184.34s-279.06,58.06-285.17,53-238.33-28.52-238.33-28.52l8.15-139.54Z"/><g class="cls-86"><path class="cls-87" d="M3373.47,2000.73c0,1.53,1,51.95-27,91.16s-179.76,27-262.26,30.55-93.7.51-93.7.51l7.13,29,16.29,39.21,204.21,6.62,209.81-6.62,36.15-185.37Z"/></g><path class="cls-88" d="M3345,1599.7s-3.22,12,16.47,18.08,14.26,81.82,11.88,110.68,28.52,5.77,30.89,59.07-14.59,188.42-30.55,228.82c49.91,34,83.18,21.73,83.18,21.73l-1-128.67s-19-194.87-20.37-218.3-10.87-86.57-10.87-86.57l-1-23.77s-54,14.26-55,14.26S3345,1599.7,3345,1599.7Z"/></g><path class="cls-4" d="M3266.2,1842.39s-1.26,47.57-3.69,48.38-208,29.94-216.9,37.23-26.71,45.32-25.9,57.46,1.61,33.18,3.23,41.28,23.11,36.51,28.15,31.83,7.19-22.66,4-38.49,11.15-24.46,10.43-55c28.42-4,124.82-2.16,171.58-3.24s72.3,4.67,80.21-16.55,11.87-82.37,16.19-103.59a267.16,267.16,0,0,1-40.9,2.23C3277.1,1843.65,3266.2,1842.39,3266.2,1842.39Z"/><g class="cls-89"><path class="cls-11" d="M3310.68,1853.12s5.1,4.09,5.1,27.58,2.3,55.4-11.49,64.59-218.8,13.28-219.57,13.28-30.89-2.3-32.43,11.24-10.21,40.85-7.65,52.34,1,37.53-14.56,32.93c15.07,15.07,17.62,20.43,26.3,12.26s24-4.6,22.47-31.15-4.6-61-4.09-63.58,248.94,9.45,248.94,9.45l14.55-138.89-27.57,9.95"/></g><path class="cls-13" d="M3308.28,1638.79c14.75-.17,33.81,15.47,36.69,74.82s-.72,136.33-.72,136.33-38.49,37.41-86.33.36c3.24-62.23,4.68-100,7.92-126.26S3277.71,1639.15,3308.28,1638.79Z"/><g class="cls-90"><path class="cls-91" d="M3314.4,1624.91s14.76,77.4,9.67,146.66S3302.68,1877,3302.68,1877l59.08,3.56s4.07-128.84,1.52-134.44-11.71-51.43-12.22-62.64S3314.4,1624.91,3314.4,1624.91Z"/></g><polygon class="cls-11" points="3379.5 1548.95 3379.5 1605.07 3415.11 1605.07 3415.11 1527.91 3379.5 1548.95"/><rect class="cls-5" x="3365.12" y="1579.98" width="57.01" height="24.82" rx="5.85"/><path class="cls-14" d="M3346.77,1421.8s-16.55-12.23-9.35-38.85,30.21-42.09,54.31-36.69c27.7-13.31,77-17.27,110.07,10.43s48.92,60.07,43.53,121.58-5.4,145.68-1.8,182.37,8.27,70.87,8.27,70.87-80.21,52.51-170.14,2.51c2.52-67.62,10.07-100.35,19.79-135.61s11.15-82-1.08-104S3346.77,1421.8,3346.77,1421.8Z"/><g class="cls-92"><path class="cls-93" d="M3561.89,1484.36s-13.75,60.09-69.26,60.09-42.77-16.81-43.28-55-17-39.38-44.14-52.28-72.65-38.71-73.33-81.82c-2.38,46.51,3.4,72.31,3.4,72.31l36.32,33.27,28.52,22.07-17,139.53-11.88,123.24,127,20h45.5l19.35-29.2,2.71-203.69Z"/><path class="cls-94" d="M3500.53,1359.85s21.13,16.55,28.26,34.62c-42.27,11.46-93.45,5.1-120.44-5.09C3444.51,1385.31,3488.81,1380.73,3500.53,1359.85Z"/></g><path class="cls-4" d="M3345.33,1411s-4.31,20.14-5,36.69-20.15,34.89-20.15,41.72,11.87,14,11.87,14,1.44,32.73,3.6,47.48,18,14.75,35.25,11.15,45.32-18.34,50.72-41.72c21.94-7.92,22.3-31.3,20.14-43.17s-23-16.18-25.9,1.08-3.59,22.3-3.59,22.3,1.8-37.77-3.24-47.48S3366.55,1430.07,3345.33,1411Z"/><g class="cls-95"><ellipse class="cls-10" cx="3361.97" cy="1465.05" rx="6.38" ry="8.63"/><path class="cls-10" d="M3364,1440.32c12,1.89,15.28,6.12,12.41,7.74s-4.1-2.57-14.08-3.11-10.92.81-12-1.88S3357.74,1439.33,3364,1440.32Z"/><circle class="cls-96" cx="3389.58" cy="1501.02" r="16.55"/><path class="cls-10" d="M3343.66,1523.57c.86-4,28.5-3.35,30.56.09s-8.94,11.94-18.54,11.46S3343.06,1526.37,3343.66,1523.57Z"/><g class="cls-97"><path class="cls-5" d="M3344.33,1518.29c-.09.18.62,5.52,2.55,6.81s17.46,2,21.54.77a10.62,10.62,0,0,0,5.92-5Z"/></g><path class="cls-74" d="M3431.1,1475.08c7.05-.22,7.15,15.32,4.43,21.28s-10.72,14.81-13.28,11.57,5-7.15.51-13S3420.17,1475.42,3431.1,1475.08Z"/></g><path class="cls-98" d="M3078.43,2195.26h427.33a0,0,0,0,1,0,0v1.57a26.57,26.57,0,0,1-26.57,26.57H3105a26.57,26.57,0,0,1-26.57-26.57v-1.57A0,0,0,0,1,3078.43,2195.26Z"/><ellipse class="cls-98" cx="3290.7" cy="2652.36" rx="144.87" ry="31.56"/><rect class="cls-6" x="3262.96" y="2243.64" width="55.04" height="390.1"/><g class="cls-99"><path class="cls-100" d="M3243.61,2305.26s82.5-5.09,96.76,44.82c1-113.06,4.07-118.15,1-118.15s-92.69,7.13-92.69,7.13Z"/></g><path class="cls-101" d="M3148,2222.15h284.08a0,0,0,0,1,0,0v0a33.9,33.9,0,0,1-33.9,33.9H3181.93a33.9,33.9,0,0,1-33.9-33.9v0A0,0,0,0,1,3148,2222.15Z"/><path class="cls-101" d="M3077.12,2144.9H3056V1998.68a39.2,39.2,0,0,1,39.16-39.16h355.58v21.13H3095.15a18.05,18.05,0,0,0-18,18Z"/><path class="cls-102" d="M3493.89,1562.53l-1.08-14.92s-30.57-4.86-56.11,21.76-31.3,70.5-25.63,152.24,22.66,144.88,22.66,219.34-8.09,148.11-111.69,204.76c27.52,20.23,67.18,2.43,67.18,2.43l50.18-41.28L3482.29,1996l-10.52-148.92-23.47-216.9Z"/><path class="cls-15" d="M3623.12,1547.61H3492.81c-36.42,0-74.46,36.42-57.46,157.82s38.85,280.84,8.09,348c-27.23,59.49-61.44,81.53-68.92,85.79h-344a28.74,28.74,0,0,0,0,57.47h520.95a28.74,28.74,0,0,0,28-22.3h0c14.75-27.34,33.9-110.43,42.81-209.17s34.8-141.64,52.6-260.61S3650.63,1547.61,3623.12,1547.61Z"/><g class="cls-103"><path class="cls-104" d="M2988.48,2180h183.33c132.4,0,342,1.78,384.73-27.25s67.22-119.93,73.33-200.13c20.63,108.47-3.81,190.2-7.63,210.06s3.05,48.89-31.32,67.22-331.52,22.16-396.45,23.68-180.27-19.09-187.15-24.44S2988.48,2180,2988.48,2180Z"/></g></g></svg>