<svg xmlns="http://www.w3.org/2000/svg" xmlns:xlink="http://www.w3.org/1999/xlink" width="2000" zoomAndPan="magnify" viewBox="0 0 1500 374.999991" height="500" preserveAspectRatio="xMidYMid meet" version="1.0"><defs><clipPath id="a4b8508dea"><path d="M 1 0 L 1500 0 L 1500 337.5 L 1 337.5 Z M 1 0 " clip-rule="nonzero"/></clipPath><clipPath id="af9c7318b9"><path d="M 0 73.164062 C 0 20.652344 0 -31.863281 0 -84.375 C 500 -84.375 1000 -84.375 1500 -84.375 C 1500 -31.863281 1500 20.652344 1500 73.164062 L 750 337.5 C 500 249.386719 250 161.277344 0 73.164062 Z M 0 73.164062 " clip-rule="nonzero"/></clipPath></defs><g clip-path="url(#a4b8508dea)"><g clip-path="url(#af9c7318b9)"><path fill="#f1945b" d="M 1500 337.5 L 1.03125 337.5 L 1.03125 -84.386719 L 1500 -84.386719 Z M 1500 337.5 " fill-opacity="1" fill-rule="nonzero"/><path fill="#fca311" d="M 1500 337.5 L 1.03125 337.5 L 1.03125 -84.386719 L 1500 -84.386719 Z M 1500 337.5 " fill-opacity="1" fill-rule="nonzero"/></g></g></svg>