<svg xmlns="http://www.w3.org/2000/svg" xmlns:xlink="http://www.w3.org/1999/xlink" viewBox="0 0 4680 3120"><defs><style>.cls-1{fill:none;}.cls-2{isolation:isolate;}.cls-3{fill:#fff;}.cls-4{fill:#f9c478;}.cls-5{fill:#fcf1db;}.cls-6{clip-path:url(#clip-path);}.cls-7{fill:#fbdba7;}.cls-8{fill:#844206;}.cls-9{fill:#9e560d;}.cls-10{fill:#ba7019;}.cls-11{fill:#a55b11;}.cls-12{fill:#ef9616;}.cls-13,.cls-34{fill:#b2b2b2;}.cls-13,.cls-33{opacity:0.83;mix-blend-mode:multiply;}.cls-14{fill:#d8820f;}.cls-15{fill:#0d75bc;}.cls-16{fill:#ffaf8f;}.cls-17{fill:#f23e44;}.cls-18{fill:#d81e2c;}.cls-19{fill:#3a230f;}.cls-20{fill:#f99f80;}.cls-21{fill:#ea997d;}.cls-22{fill:#fc9e8b;}.cls-23{fill:#263238;}.cls-24{fill:#4c3116;}.cls-25{fill:#ff806d;}.cls-26{fill:#28180a;}.cls-27{fill:#e57755;}.cls-28{fill:#ff5155;}.cls-29{fill:#ed3a43;}.cls-30{fill:#135c91;}.cls-31{fill:#6cb4f4;}.cls-32{fill:#7ac2f9;}.cls-35{fill:#ffa466;}.cls-36{fill:#e88c4d;}.cls-37{fill:#e88846;}.cls-38{fill:#1e3c68;}.cls-39{fill:#152b51;}.cls-40{fill:#0c1c33;}.cls-41{fill:#112644;}.cls-42{fill:#dd6631;}.cls-43{fill:#f79b5c;}.cls-44{fill:#0b2e56;}.cls-45{fill:#0a2a49;}.cls-46{fill:#e42f30;}.cls-47{fill:#e6f3ff;}.cls-48{fill:#0b517c;}.cls-49{fill:#0d619b;}.cls-50{fill:#1f78c1;}.cls-51{fill:#e59b25;}.cls-52{fill:#ba750f;}.cls-53{fill:#3f7bd1;}.cls-54{fill:#1c5ea0;}.cls-55{fill:#b2f9f9;}.cls-56{fill:#2794c4;}.cls-57{fill:#f7486d;}.cls-58{fill:#ffc569;}.cls-59,.cls-60{fill:#f7c469;}.cls-59{opacity:0.64;}.cls-60{stroke:#f7c469;stroke-miterlimit:10;stroke-width:6.6px;}.cls-61{fill:#eab054;}.cls-62{fill:#b0e7ff;}.cls-63{clip-path:url(#clip-path-2);}.cls-64{fill:#fbbd9d;}.cls-65{fill:#f2ac8c;}.cls-66{fill:#12b596;}.cls-67{fill:#0ba083;}.cls-68{fill:#0b8971;}.cls-69{fill:#1b1b70;}.cls-70{fill:#18185b;}.cls-71{fill:#1f1f7c;}.cls-72{fill:#19196d;}.cls-73{fill:#f9ad8c;}.cls-74{fill:#161616;}.cls-75{fill:#efa889;}.cls-76{fill:#020202;}.cls-77{fill:#c8fcfc;}.cls-78{fill:#dcfeff;}.cls-79{fill:#0c9379;}.cls-80{fill:#d64225;}.cls-81{fill:#ef613d;}.cls-82{fill:#ffb94a;}.cls-83{fill:#ed9f2e;}.cls-84{fill:#bbe2ff;}</style><clipPath id="clip-path"><path class="cls-1" d="M3928.87,1315.38C3906.58,678.6,3308,366.58,2652.13,420.7s-948.8,407.54-1677.92,620.86-503,942.44-503,942.44c-87.47,666.59,528.52,700.45,528.52,700.45s2614,175.12,2945.11-391.62S3928.87,1315.38,3928.87,1315.38Z"/></clipPath><clipPath id="clip-path-2"><path class="cls-1" d="M4240.89,1141.26C4218.61,504.48,3308,366.58,2652.13,420.7s-948.8,407.54-1677.92,620.86-503,942.44-503,942.44c-87.47,666.59,528.52,700.45,528.52,700.45s2614,175.12,2945.11-391.62S4240.89,1141.26,4240.89,1141.26Z"/></clipPath></defs><title>08</title><g class="cls-2"><g id="_08" data-name="08"><rect class="cls-3" width="4680" height="3120"/><path class="cls-4" d="M3968.83,1315.38C3946.54,678.6,3348,366.58,2692.09,420.7s-948.8,407.54-1677.92,620.86-503,942.44-503,942.44c-87.47,666.59,528.52,700.45,528.52,700.45s2614,175.12,2945.11-391.62S3968.83,1315.38,3968.83,1315.38Z"/><path class="cls-4" d="M1511.88,749.5q2.68-2.5,5.21-5c83.57-83.43,9.3-226.52-107.23-207.39-278.36,45.71-635,372-586.73,451.12C880.31,1081.81,1411.86,843.11,1511.88,749.5Z"/><path class="cls-4" d="M736.67,1101.37c45.31-26.16,66.92-73.53,48.29-105.8s-70.46-37.24-115.77-11.08-66.92,73.52-48.28,105.79S691.37,1127.52,736.67,1101.37Z"/><path class="cls-5" d="M3928.87,1315.38C3906.58,678.6,3308,366.58,2652.13,420.7s-948.8,407.54-1677.92,620.86-503,942.44-503,942.44c-87.47,666.59,528.52,700.45,528.52,700.45s2614,175.12,2945.11-391.62S3928.87,1315.38,3928.87,1315.38Z"/><path class="cls-5" d="M1480.18,760.41c1.78-1.68,3.52-3.35,5.2-5,83.57-83.43,9.3-226.51-107.22-207.38-278.37,45.7-635.05,372-586.74,451.12C848.6,1092.72,1380.15,854,1480.18,760.41Z"/><path class="cls-5" d="M705,1112.27c45.3-26.15,66.92-73.52,48.28-105.79s-70.46-37.24-115.77-11.09-66.91,73.53-48.28,105.8S659.66,1138.43,705,1112.27Z"/><g class="cls-6"><rect class="cls-7" x="410.77" y="1782.32" width="275.21" height="135.45" rx="3.1"/><rect class="cls-7" x="729.16" y="1782.32" width="275.21" height="135.45" rx="3.1"/><rect class="cls-7" x="1047.55" y="1782.32" width="275.21" height="135.45" rx="3.1"/><rect class="cls-7" x="1365.94" y="1782.32" width="275.21" height="135.45" rx="3.1"/><rect class="cls-7" x="1684.33" y="1782.32" width="275.21" height="135.45" rx="3.1"/><rect class="cls-7" x="2002.72" y="1782.32" width="275.21" height="135.45" rx="3.1"/><rect class="cls-7" x="2321.11" y="1782.32" width="275.21" height="135.45" rx="3.1"/><rect class="cls-7" x="2639.5" y="1782.32" width="275.21" height="135.45" rx="3.1"/><rect class="cls-7" x="2957.89" y="1782.32" width="275.21" height="135.45" rx="3.1"/><rect class="cls-7" x="3276.28" y="1782.32" width="275.21" height="135.45" rx="3.1"/><rect class="cls-7" x="3594.67" y="1782.32" width="275.21" height="135.45" rx="3.1"/><rect class="cls-7" x="3913.06" y="1782.32" width="275.21" height="135.45" rx="3.1"/><rect class="cls-7" x="410.77" y="2105.04" width="275.21" height="135.45" rx="3.1"/><rect class="cls-7" x="729.16" y="2105.04" width="275.21" height="135.45" rx="3.1"/><rect class="cls-7" x="1047.55" y="2105.04" width="275.21" height="135.45" rx="3.1"/><rect class="cls-7" x="1365.94" y="2105.04" width="275.21" height="135.45" rx="3.1"/><rect class="cls-7" x="1684.33" y="2105.04" width="275.21" height="135.45" rx="3.1"/><rect class="cls-7" x="2002.72" y="2105.04" width="275.21" height="135.45" rx="3.1"/><rect class="cls-7" x="2321.11" y="2105.04" width="275.21" height="135.45" rx="3.1"/><rect class="cls-7" x="2639.5" y="2105.04" width="275.21" height="135.45" rx="3.1"/><rect class="cls-7" x="2957.89" y="2105.04" width="275.21" height="135.45" rx="3.1"/><rect class="cls-7" x="3276.28" y="2105.04" width="275.21" height="135.45" rx="3.1"/><rect class="cls-7" x="3594.67" y="2105.04" width="275.21" height="135.45" rx="3.1"/><rect class="cls-7" x="3913.06" y="2105.04" width="275.21" height="135.45" rx="3.1"/><rect class="cls-7" x="410.77" y="2427.76" width="275.21" height="135.45" rx="3.1"/><rect class="cls-7" x="729.16" y="2427.76" width="275.21" height="135.45" rx="3.1"/><rect class="cls-7" x="1047.55" y="2427.76" width="275.21" height="135.45" rx="3.1"/><rect class="cls-7" x="1365.94" y="2427.76" width="275.21" height="135.45" rx="3.1"/><rect class="cls-7" x="1684.33" y="2427.76" width="275.21" height="135.45" rx="3.1"/><rect class="cls-7" x="2002.72" y="2427.76" width="275.21" height="135.45" rx="3.1"/><rect class="cls-7" x="2321.11" y="2427.76" width="275.21" height="135.45" rx="3.1"/><rect class="cls-7" x="2639.5" y="2427.76" width="275.21" height="135.45" rx="3.1"/><rect class="cls-7" x="2957.89" y="2427.76" width="275.21" height="135.45" rx="3.1"/><rect class="cls-7" x="3276.28" y="2427.76" width="275.21" height="135.45" rx="3.1"/><rect class="cls-7" x="3594.67" y="2427.76" width="275.21" height="135.45" rx="3.1"/><rect class="cls-7" x="3913.06" y="2427.76" width="275.21" height="135.45" rx="3.1"/><rect class="cls-7" x="410.77" y="2750.48" width="275.21" height="135.45" rx="3.1"/><rect class="cls-7" x="729.16" y="2750.48" width="275.21" height="135.45" rx="3.1"/><rect class="cls-7" x="1047.55" y="2750.48" width="275.21" height="135.45" rx="3.1"/><rect class="cls-7" x="1365.94" y="2750.48" width="275.21" height="135.45" rx="3.1"/><rect class="cls-7" x="1684.33" y="2750.48" width="275.21" height="135.45" rx="3.1"/><rect class="cls-7" x="2002.72" y="2750.48" width="275.21" height="135.45" rx="3.1"/><rect class="cls-7" x="2321.11" y="2750.48" width="275.21" height="135.45" rx="3.1"/><rect class="cls-7" x="2639.5" y="2750.48" width="275.21" height="135.45" rx="3.1"/><rect class="cls-7" x="2957.89" y="2750.48" width="275.21" height="135.45" rx="3.1"/><rect class="cls-7" x="3276.28" y="2750.48" width="275.21" height="135.45" rx="3.1"/><rect class="cls-7" x="3594.67" y="2750.48" width="275.21" height="135.45" rx="3.1"/><rect class="cls-7" x="3913.06" y="2750.48" width="275.21" height="135.45" rx="3.1"/><rect class="cls-7" x="548.37" y="1943.68" width="275.21" height="135.45" rx="3.1"/><rect class="cls-7" x="866.76" y="1943.68" width="275.21" height="135.45" rx="3.1"/><rect class="cls-7" x="1185.15" y="1943.68" width="275.21" height="135.45" rx="3.1"/><rect class="cls-7" x="1503.54" y="1943.68" width="275.21" height="135.45" rx="3.1"/><rect class="cls-7" x="1821.93" y="1943.68" width="275.21" height="135.45" rx="3.1"/><rect class="cls-7" x="2140.32" y="1943.68" width="275.21" height="135.45" rx="3.1"/><rect class="cls-7" x="2458.71" y="1943.68" width="275.21" height="135.45" rx="3.1"/><rect class="cls-7" x="2777.1" y="1943.68" width="275.21" height="135.45" rx="3.1"/><rect class="cls-7" x="3095.49" y="1943.68" width="275.21" height="135.45" rx="3.1"/><rect class="cls-7" x="3413.88" y="1943.68" width="275.21" height="135.45" rx="3.1"/><rect class="cls-7" x="3732.27" y="1943.68" width="275.21" height="135.45" rx="3.1"/><rect class="cls-7" x="4050.66" y="1943.68" width="275.21" height="135.45" rx="3.1"/><rect class="cls-7" x="548.37" y="2266.4" width="275.21" height="135.45" rx="3.1"/><rect class="cls-7" x="866.76" y="2266.4" width="275.21" height="135.45" rx="3.1"/><rect class="cls-7" x="1185.15" y="2266.4" width="275.21" height="135.45" rx="3.1"/><rect class="cls-7" x="1503.54" y="2266.4" width="275.21" height="135.45" rx="3.1"/><rect class="cls-7" x="1821.93" y="2266.4" width="275.21" height="135.45" rx="3.1"/><rect class="cls-7" x="2140.32" y="2266.4" width="275.21" height="135.45" rx="3.1"/><rect class="cls-7" x="2458.71" y="2266.4" width="275.21" height="135.45" rx="3.1"/><rect class="cls-7" x="2777.1" y="2266.4" width="275.21" height="135.45" rx="3.1"/><rect class="cls-7" x="3095.49" y="2266.4" width="275.21" height="135.45" rx="3.1"/><rect class="cls-7" x="3413.88" y="2266.4" width="275.21" height="135.45" rx="3.1"/><rect class="cls-7" x="3732.27" y="2266.4" width="275.21" height="135.45" rx="3.1"/><rect class="cls-7" x="4050.66" y="2266.4" width="275.21" height="135.45" rx="3.1"/><rect class="cls-7" x="548.37" y="2589.12" width="275.21" height="135.45" rx="3.1"/><rect class="cls-7" x="866.76" y="2589.12" width="275.21" height="135.45" rx="3.1"/><rect class="cls-7" x="1185.15" y="2589.12" width="275.21" height="135.45" rx="3.1"/><rect class="cls-7" x="1503.54" y="2589.12" width="275.21" height="135.45" rx="3.1"/><rect class="cls-7" x="1821.93" y="2589.12" width="275.21" height="135.45" rx="3.1"/><rect class="cls-7" x="2140.32" y="2589.12" width="275.21" height="135.45" rx="3.1"/><rect class="cls-7" x="2458.71" y="2589.12" width="275.21" height="135.45" rx="3.1"/><rect class="cls-7" x="2777.1" y="2589.12" width="275.21" height="135.45" rx="3.1"/><rect class="cls-7" x="3095.49" y="2589.12" width="275.21" height="135.45" rx="3.1"/><rect class="cls-7" x="3413.88" y="2589.12" width="275.21" height="135.45" rx="3.1"/><rect class="cls-7" x="3732.27" y="2589.12" width="275.21" height="135.45" rx="3.1"/><rect class="cls-7" x="4050.66" y="2589.12" width="275.21" height="135.45" rx="3.1"/><rect class="cls-8" x="672.93" y="2522.74" width="84.07" height="390.8"/><rect class="cls-9" x="672.93" y="2522.74" width="61.31" height="390.8"/><rect class="cls-8" x="992.8" y="2522.74" width="84.07" height="390.8"/><rect class="cls-9" x="992.8" y="2522.74" width="61.31" height="390.8"/><path class="cls-10" d="M1116.38,2465.17h-391l-78.19-785.91,79,25.68c1.79.57,3.53,1.2,5.26,1.87a106.45,106.45,0,0,1,66.64,80.72l17.93,100.89,2.09,11.8,76.4,430.16a47.92,47.92,0,0,0,47.2,39.54h56.76a115.06,115.06,0,0,1,104,65.91Z"/><path class="cls-11" d="M1116.38,2465.17H772.14l-18.41-27.8,22.89-24.46a18.33,18.33,0,0,0,2-22.62c-16-24.4-49.42-87.69-49.42-191.7,0-136.91,86.93-310.17,86.93-310.17l78.49,442a47.92,47.92,0,0,0,47.2,39.54h56.76a115.06,115.06,0,0,1,104,65.91Z"/><path class="cls-12" d="M630.78,1675.84h0a41.21,41.21,0,0,1,41,37.15l69.06,698.33a41.21,41.21,0,0,0,41,37.15h301.41a41.2,41.2,0,0,1,41.2,41.21v8.86a41.2,41.2,0,0,1-41.2,41.2H705.72A116.14,116.14,0,0,1,589.58,2423.6V1717.05A41.21,41.21,0,0,1,630.78,1675.84Z"/><path class="cls-11" d="M818.17,1900.22l-12,9.31S792,1816.7,783.89,1779.38c-9-41.67-38.9-62.91-52.38-72.57a106.45,106.45,0,0,1,66.64,80.72l17.93,100.89Z"/><path class="cls-10" d="M1938.56,1826.07l-77.57,7.42a159.75,159.75,0,0,0-144.56,159v355.72h222.13Z"/><path class="cls-13" d="M1970.13,2064.05l-11.62,44.6h0l-12.26,47-.07,0,26.14-100.2,0,0-2.23,8.55Zm-63-49.74,45.42,28.7-27.3,105.32-36.11-12.69Zm-97.62,126.24a8.18,8.18,0,0,0-.7-1.76l1,.23Zm187,55.33H2020A158.2,158.2,0,0,0,1995.7,2206Z"/><rect class="cls-8" x="1603.65" y="2522.74" width="84.07" height="390.8"/><rect class="cls-9" x="1603.65" y="2522.74" width="61.31" height="390.8"/><rect class="cls-8" x="2088.35" y="2522.74" width="84.07" height="390.8"/><rect class="cls-9" x="2088.35" y="2522.74" width="61.31" height="390.8"/><path class="cls-12" d="M2240.37,2427.68v75a32.65,32.65,0,0,1-32.55,32.55H1546.29a32.63,32.63,0,0,1-32.52-31.57c0-.33,0-.65,0-1v-75a32.65,32.65,0,0,1,32.55-32.55h661.53A32.65,32.65,0,0,1,2240.37,2427.68Z"/><path class="cls-14" d="M2240.37,2427.68v75a32.65,32.65,0,0,1-32.55,32.55H1546.29a32.63,32.63,0,0,1-32.52-31.57c363-18.5,569.32-69.9,676.83-108.52h17.22A32.65,32.65,0,0,1,2240.37,2427.68Z"/><path class="cls-10" d="M1549.62,1653.09l-77.57,7.41a159.75,159.75,0,0,0-144.56,159v355.73h222.13Z"/><path class="cls-12" d="M1615.49,1653.09l-77.58,7.41a159.74,159.74,0,0,0-144.55,159v355.73h222.13Z"/><path class="cls-15" d="M2011.14,2197.48s475.46,32,492.44,214.93-34,461.87-34,461.87H2313.5l-42.76-291.12c-6.88-46.85-41.94-83-85.69-88.35l-224.86-27.52s-110.37-118.9-59.43-187.49S2011.14,2197.48,2011.14,2197.48Z"/><path class="cls-15" d="M1945.71,2275.71s51.75,46.7,71.32,212.26,17.55,386.31,17.55,386.31h-177.8s-70.53-314.14-104.55-360.84-120.81-97.64-120.81-97.64S1719,2097.41,1945.71,2275.71Z"/><polygon class="cls-16" points="1797.05 2141.73 1876.4 2138.36 1985.65 2176.75 1982.82 2209.65 1784.54 2209.65 1797.05 2141.73"/><path class="cls-3" d="M1769.87,2135.36l20,2a7.92,7.92,0,0,1,7.15,7.86c0,15.82-1.8,53.85-18.35,72.9h-26.46Z"/><path class="cls-17" d="M2059.94,1854.13l-25.33,60h0l-63.79,151.12-76.4-48.27-18,121.33-79.35,3.37-27.18-6.37c-1.38,57.31-17.63,82.78-17.63,82.78H1348.88c-30.78-30.79-21.23-92-21.23-92s63.68-299.3,113.91-379.25a203.58,203.58,0,0,1,21-27.53c56.83-63.49,150.86-101.25,150.86-101.25,154.11-22.62,172.74,7.79,253.4,32.25S2059.94,1854.13,2059.94,1854.13Z"/><path class="cls-18" d="M1746.05,1587.73l26.69,35.38s25.75,71.46,15.32,74.29-36.86-31.84-36.86-31.84S1725.27,1585.61,1746.05,1587.73Z"/><path class="cls-19" d="M1624.24,1476.72l29.77,73.65,18.65,11.67s-4.2,1.8-22.41-1.87-84.07-49.25-92.79-109.18,37.79-38.24,37.79-38.24Z"/><path class="cls-20" d="M1748.5,1572l-.48,52.48s17.57,76.11-19,79.78c-38.83,3.88-83.44-91.21-83.44-91.21l9-79,22.9-45.84Z"/><path class="cls-21" d="M1761.24,1579.65a33.58,33.58,0,0,0,5.25-1c13.82-3.86,25.85-10.39,34.74-18.92a52.29,52.29,0,0,0,13.86-21.15c5.13-15.22,1.7-39.39-5.17-64.79-2.25-8.34-4.85-16.8-7.64-25.12-3.18-9.42-6.57-18.66-9.93-27.33-3.61-9.29-7.2-17.94-10.44-25.48q-2-4.63-3.79-8.66c-5.46-12.33-9.25-20.07-9.25-20.07-19.53-25.73-40.06-43.54-71.59-39.34-.89.11-1.8.25-2.72.41-2.26.38-4.58.89-7,1.49-4.6,3.61-9.4,12.23-10.77,32.18-1.74,25.82-2,67.35-13.29,96.37-3.78,9.67-8.78,18-15.49,23.81a36.48,36.48,0,0,1-19.94,8.88c-1.54.2-3,.44-4.36.72.27,1.54.44,2.41.44,2.41a18.13,18.13,0,0,0-3.17-1.74c-14.39-6.36-35.5,3.85-17.52,34.37,5.83,9.86,12.72,16,19.48,19.68v0a44.7,44.7,0,0,0,25.93,5.09c.68-.07,1.3-.15,1.85-.23a27.08,27.08,0,0,0,3.06-.62l.25.23-.06-.48s48.57,35.56,107.23,29.28Z"/><path class="cls-16" d="M1600.29,1527.13c5.82,9.88,12.69,16,19.46,19.69,0,0,0,0,0,0a44.53,44.53,0,0,0,29.13,4.63c1.09-.2,1.69-.37,1.69-.37l.16.14c1.25,1.1-.16,0,0,.13l3.31-.52-.06-.48s39.54,29,90.35,30a77,77,0,0,0,43.25-12c11.67-7.52,20.3-17.56,24.27-29.34,5.12-15.23,1.69-39.39-5.18-64.81-.34-1.26-.68-2.51-1-3.77-4.27-15.24-9.69-30.81-15.14-45.06-.12-.32-.25-.63-.37-.94-.34-.9-.68-1.78-1-2.66-1.06-2.73-2.13-5.41-3.18-8-2.36-5.88-4.68-11.43-6.85-16.5-1.46-3.43-2.87-6.63-4.17-9.58-5.48-12.37-9.28-20.13-9.28-20.13-19.43-25.58-39.86-43.36-71.09-39.39l-.48.06h0a79.06,79.06,0,0,0-9.68,1.91s-64.69-5.37-97,46.63c-23.25,37.36,2.73,88.52,19.2,114.36C1595.34,1492.72,1586.75,1504.2,1600.29,1527.13Z"/><path class="cls-22" d="M1795.27,1460.23a41.22,41.22,0,0,0,10.35,10.84c-4.26-15.25-9.67-30.85-15.13-45.15A39.83,39.83,0,0,0,1795.27,1460.23Z"/><path class="cls-22" d="M1794.79,1459.26a40.94,40.94,0,0,0,14.64,13.53c-.29-1-.58-2.12-.87-3.19-4.26-15.24-9.67-30.85-15.13-45.15-.52-1.37-1-2.74-1.57-4.08C1786.1,1432.12,1786.75,1447,1794.79,1459.26Z"/><ellipse class="cls-22" cx="1684.94" cy="1490.9" rx="36.8" ry="39.07" transform="matrix(0.84, -0.55, 0.55, 0.84, -541.6, 1167.93)"/><path class="cls-23" d="M1783.87,1419c1.79,5.36,0,10.85-4,12.27s-8.68-1.77-10.47-7.13,0-10.85,4-12.27S1782.08,1413.64,1783.87,1419Z"/><path class="cls-23" d="M1720.66,1440.64c2.34,4.92,1,10.51-3,12.49s-9.08-.38-11.43-5.29-1-10.52,2.94-12.5S1718.31,1435.72,1720.66,1440.64Z"/><path class="cls-24" d="M1726.2,1420.36c-1.13,3.3-13.21,2-27.34,3.92-14.17,1.67-25.52,6-27.45,3.11-.86-1.39,1.08-4.52,5.64-7.78a48,48,0,0,1,41.74-5.35C1724,1416.26,1726.68,1418.79,1726.2,1420.36Z"/><path class="cls-24" d="M1780.56,1384.26c.88,3-5.53,6.79-10.86,13.27-5.58,6.27-8.32,13.17-11.42,12.79-1.46-.25-2.76-2.71-2.71-6.65a22,22,0,0,1,5.42-13.5,22.29,22.29,0,0,1,12.53-7.49C1777.42,1382,1780.08,1382.88,1780.56,1384.26Z"/><path class="cls-25" d="M1793.5,1506.51l-47.45,3.1S1768.36,1547.28,1793.5,1506.51Z"/><path class="cls-23" d="M1771.91,1487.42c-.15-.35,4-2.52,10.8-5.74,1.74-.78,3.33-1.68,3.27-2.89s-1.29-2.82-2.79-4.41l-9.38-10.57c-13.17-15.12-23.28-27.8-22.58-28.33s11.94,11.29,25.12,26.41l9.18,10.73c1.29,1.61,3.15,3.31,3,6.06a4.69,4.69,0,0,1-2.16,3.38,14.31,14.31,0,0,1-2.92,1.42C1776.47,1486.24,1772.06,1487.77,1771.91,1487.42Z"/><path class="cls-19" d="M1627.92,1411.78s3,31.9,11.1,58.54a31.64,31.64,0,0,1-.89,20.88l-3.45,8.65s-22.7-24.9-43.34-70C1591.34,1429.82,1599.91,1401.08,1627.92,1411.78Z"/><path class="cls-19" d="M1583.17,1406.2l35.92,31.21,12.33,56.38s-24.85-7-33.38,5.1-30.36-64.85-30.36-64.85Z"/><path class="cls-19" d="M1768.81,1366.32s15.1-34-12.48-55.1-65.84-5.38-88.21-22.46l6.33,7.64s-39.76-11.37-66.78,3.27-51.83,32.6-67,31.26c0,0,15.47,3.64,23,4.92a153.16,153.16,0,0,0-25.4,17.33c-13.67,11.36-24.58,13.5-24.58,13.5s15.55,5.21,22.08,4.41c0,0-5.19,19.53-2.39,37.81s16.44,56.38,16.44,56.38l11.4-26.62,153.25-114.25,28.31,1.31Z"/><path class="cls-19" d="M1553.37,1468.36a10.17,10.17,0,0,0,7.49-.17c11.87-4.41,23.91-25.49,23.91-25.49,99.56-37,63.72-61,63.72-61s19.55,5.37,57.67-11c19-8.17,25-21.12,26.3-32.05a45.09,45.09,0,0,0-.2-11.5,41.6,41.6,0,0,0-2.06-8.47l9.9,12.23,28.71,35.44c25.38-58.49-80.35-63.42-81.75-63.49,10.5,1.94,10.68,8.43,10.68,8.43s-24.6-21.41-88.9,1c-48.36,16.85-58.66,40.38-58.29,57.92a48.07,48.07,0,0,0,7.35,24.15s-8.22,8.87-11.35,25,14.53,15.33,14.53,15.33a99.31,99.31,0,0,0-7.9,12.66C1548.93,1455.57,1545.91,1465.39,1553.37,1468.36Z"/><path class="cls-19" d="M1710.87,1322.74l12.79,10.8,2.4,2s2.46,1,6.4,3.06c8.54,4.42,24,13.64,36.35,27.7l-6.52-13.93-11.94-25.53-23.06-13.54Z"/><path class="cls-19" d="M1563.43,1358.7c-1.59.93-24.89,17.15-26.9,41.34s19.84,51.64,19.84,51.64l33.31-39.13Z"/><path class="cls-26" d="M1560.86,1468.19c11.87-4.41,23.91-25.49,23.91-25.49,99.56-37,63.72-61,63.72-61s19.55,5.37,57.67-11c19-8.17,29-15.28,30.27-26.22,8.55,4.42,20,7.81,32.38,21.87a58.35,58.35,0,0,0-6.52-13.93,62.82,62.82,0,0,0-22.19-21.51,61.21,61.21,0,0,0-7.84-3.76c-1.69-.66-3.45-1.28-5.29-1.82a32.33,32.33,0,0,1-3.31,8.24c-6.73,12.43-26.31,35.21-80.79,41.64,0,0,15,35.25-61.32,62.1,0,0-5.62,20.2-20.1,30.39A2.7,2.7,0,0,0,1560.86,1468.19Z"/><path class="cls-16" d="M1628.53,1493.23s-12.07-12.1-30.44-3.46,4,75.19,43.71,62.43Z"/><path class="cls-27" d="M1626.85,1535.31a2.61,2.61,0,0,0,1.4-1.39l6.23-14.31-20.75-11.08a2.58,2.58,0,0,0-3.64,1.24,3.1,3.1,0,0,0,1.38,3.92l15.74,8.41-4,9.16a3.1,3.1,0,0,0,1.38,3.92A2.64,2.64,0,0,0,1626.85,1535.31Z"/><path class="cls-28" d="M1710.85,1725.52c-4.42.78-9.38.13-14.61-1.76h0c-26.36-9.5-60.86-50-81-96.51a22,22,0,0,1,3.9-23.56l7.05-7.71a8.58,8.58,0,0,1,11.48-1l88.81,67.41a18.29,18.29,0,0,1,7.22,14.09C1734.07,1691.82,1732.09,1721.73,1710.85,1725.52Z"/><path class="cls-29" d="M1710.85,1725.52c-4.42.78-9.38.13-14.61-1.76,21.88-4.79,25.75-26.55,26-39.65a19.62,19.62,0,0,0-7.27-15.62L1626.15,1596a8.58,8.58,0,0,1,11.48-1l88.81,67.41a18.29,18.29,0,0,1,7.22,14.09C1734.07,1691.82,1732.09,1721.73,1710.85,1725.52Z"/><path class="cls-18" d="M1769.87,2135.36c-1.38,57.31-17.63,82.78-17.63,82.78H1348.88c-30.78-30.79-21.23-92-21.23-92s63.68-299.3,113.91-379.25a203.58,203.58,0,0,1,21-27.53s114.46,88.2,128.83,194.79l-35,165.47s-58.88,13.26-116.17,55.68c2.34-1.19,79.36-40.27,137.89-38.18Z"/><path class="cls-18" d="M2034.58,1914.18l-63.79,151.12-76.4-48.27,19.09-123.49V1736.31L1930,1847.58a66.81,66.81,0,0,0,52.29,55.56Z"/><path class="cls-17" d="M1483.66,2290.31s62.62,115.68,104,135.85,88.08-2.13,123.11-41.39,149.64-86,202.71-89.15S1629.06,2220.27,1483.66,2290.31Z"/><path class="cls-30" d="M1770,2198.59h175.74v-27.72H1772.59a4.76,4.76,0,0,0-4.75,4.76v20.83A2.13,2.13,0,0,0,1770,2198.59Z"/><path class="cls-30" d="M2011.07,1860.58h-7.94a19.82,19.82,0,0,0-19.19,14.85l-78,301.06h22.75Z"/><path class="cls-31" d="M2472.78,1860.58H2011.07l-88.09,338h487.6l74.76-322.22A12.89,12.89,0,0,0,2472.78,1860.58Z"/><polygon class="cls-32" points="2095.16 1860.58 2427.03 2127.69 2410.58 2198.59 2011.07 1860.58 2095.16 1860.58"/><polygon class="cls-32" points="2004.25 1889.6 1994.63 1924.28 2297.49 2198.59 2354.32 2198.59 2004.25 1889.6"/><polygon class="cls-32" points="2088.35 2198.59 2035.89 2198.59 1945.71 2111.36 1957.34 2066.76 2088.35 2198.59"/><g class="cls-33"><ellipse class="cls-34" cx="1233.66" cy="1600.61" rx="35.24" ry="33.79" transform="translate(-764.85 1900.33) rotate(-60.91)"/><path class="cls-34" d="M1167.16,1602.36c2.12-4.32,6.55-7.16,14.44-7.53,36.63-1.65,59.1-48.79,59.1-48.79l-10.91,1.65-28.67,7.31s-12.46,27.53-34.43,37C1156.77,1596.26,1160.29,1599.76,1167.16,1602.36Z"/><path class="cls-34" d="M1311.93,1641.66l-33.8-3.51s1.72,32,17.29,30S1311.93,1641.66,1311.93,1641.66Z"/><path class="cls-34" d="M1549.31,2324.14s13.09,34.67,0,84.55-220.51,356.22-220.51,356.22l67.33-443.25L1526.67,2292Z"/><path class="cls-34" d="M1549.31,2324.14s-31.13,5-53.42,15.56c0,0,5.31,8.49,0,42.46s-116.57,259.65-116.57,259.65l24.24-331.5,127.36-12Z"/><path class="cls-34" d="M1467.24,2317.43s22.29,2.11,10.61,62.6-200.58,508.37-200.58,508.37h-96.58l109.66-459.72S1378.09,2276.05,1467.24,2317.43Z"/><path class="cls-34" d="M1549.32,2324.14c-114.62-29.72-259,104.53-259,104.53s-14.21.84-36,2h-.06c-63.11,3.39-189.55,9.47-215.86,5.26-1-.16-1.88-.3-2.77-.46-33.25-5.67-45-14.05-45-14.05l-32.89-54.84,80.66-169.11s82.61,5.08,179.84,13.13h0c114.46,9.47,249.17,23.06,293.19,37.24,5.72,1.82,9.9,3.69,12.31,5.53C1560.63,2281.7,1549.32,2324.14,1549.32,2324.14Z"/><path class="cls-34" d="M1035.71,2435.48c-33.25-5.67-45-14.05-45-14.05l-32.89-54.84,80.66-169.11s82.61,5.08,179.84,13.13C994.89,2276.82,1035.71,2435.48,1035.71,2435.48Z"/><path class="cls-34" d="M1038.47,2290.88s34.66-63.48,159.2-82.07c0,0-7.08-10.61-25.47-19.1s-114.62-25.47-114.62-25.47l-38.92-19.11Z"/><path class="cls-34" d="M1038.47,2178.39s-89.89,47.4-47.07,34.67-59.76,46-75.33,91.27,82.07-94.81,192.09-113.21Z"/><path class="cls-34" d="M1187.05,2080.75l233.22,49a92.77,92.77,0,0,0,45.5-1.85c37.69-11.19,113.61-31.15,142.62-20.17,39.27,14.87,66.86,49,66.86,62.23v12.67a14.86,14.86,0,0,1-14.86,14.86H1067.75a43.48,43.48,0,0,1-43.39-46.17l3.5-56.26Z"/><path class="cls-34" d="M1187.05,2080.75l-181,17.15a13.36,13.36,0,0,1-13.88-17.63l77.66-210.89L1031.28,2057a14.5,14.5,0,0,0,13.56,17.4Z"/><path class="cls-34" d="M1014.32,1753.87l52.24-56.61a12.47,12.47,0,0,1,13.89-3.09l99.55,40.64a12.49,12.49,0,0,1,6.65,16.72l-7.8,17.19Z"/><polygon class="cls-34" points="1183.12 1759.32 1023.27 1744.17 1039.48 1726.6 1185.41 1754.26 1183.12 1759.32"/><path class="cls-34" d="M1523.85,2253.38s-141,17-195.06,70.76-74.39,106.54-74.39,106.54h-12.89s36.82-80.36,82.1-117.38c48.75-39.86,125.41-58.26,187.93-65.45C1517.26,2249.67,1521.44,2251.54,1523.85,2253.38Z"/><path class="cls-34" d="M1204.07,2433.22h14.82s41.75-116.86,117.45-153.66,133.61-41,133.61-41l-28-4.43s-85.1,12.23-139.58,51.85S1204.07,2433.22,1204.07,2433.22Z"/><path class="cls-34" d="M1191.2,1588.54s-18.74-22.89-41.22-13.29-17.31,45.81,8.69,59.26,44.19,6.67,44.19,6.67Z"/><path class="cls-34" d="M1435.57,2132.17l-4.94,65.31h-26.55l6.38-68.67a5.22,5.22,0,0,1,3.06-4.28,5.12,5.12,0,0,1,3-.38l14.73,2.49A5.24,5.24,0,0,1,1435.57,2132.17Z"/><path class="cls-34" d="M1430.26,2132.17l-4.94,65.31h-21.24l6.38-68.67a5.22,5.22,0,0,1,3.06-4.28l12.42,2.11A5.2,5.2,0,0,1,1430.26,2132.17Z"/><path class="cls-34" d="M1288.57,1564.52c1.27,4.67-.47,9.27-3.89,10.27s-7.22-2-8.49-6.64.46-9.28,3.88-10.28S1287.29,1559.84,1288.57,1564.52Z"/><path class="cls-34" d="M1277.12,1562.41a6.21,6.21,0,0,1-5.29-2.11s.34,5.1,4.59,5.7S1277.12,1562.41,1277.12,1562.41Z"/><path class="cls-34" d="M1242.39,1547.46l-1.69-1.42,1,2.68C1241.92,1548.27,1242.16,1547.86,1242.39,1547.46Z"/></g><path class="cls-35" d="M1013.08,1768,1141,1788.21l65.48-102.59c28.25,14.67,66.91,27.18,91.37,3.87,13.14-12.53,15.63-36.61,12.83-63.86l9.39-5.65a6.51,6.51,0,0,0,2-9.33l-18.78-26.88c-11.58-48.59-30.93-94.13-30.93-94.13L1130.75,1504l-15.86,111.1,15.21,13Z"/><path class="cls-36" d="M1206.49,1685.62a824.56,824.56,0,0,1-68.49-51.57l53.67,74.82Z"/><ellipse class="cls-37" cx="1222.46" cy="1600.61" rx="35.24" ry="33.79" transform="translate(-770.6 1890.55) rotate(-60.91)"/><path class="cls-38" d="M1272.82,1469l-15.19,30.51s-8.54,16-26.42,47.93c-.27.43-.49.81-.73,1.27l-1-2.68a117.82,117.82,0,0,1-9.73,16c-9.93,13.86-27,31.79-49.37,32.79-7.89.38-12.31,3.2-14.42,7.51a18.91,18.91,0,0,0-1.47,10.09c0,.44.08.87.14,1.3,2,16.85,16.65,38.79,16.65,38.79l-.38.52a24.14,24.14,0,0,1-24.79,9c-21.21-4.94-59.56-17.17-88.17-44.78-20.35-19.61-35.72-47-36.54-85v0c3.42-33.36,19.23-77.11,50.4-104,0-.06,0-.06,0-.06,20.53-17.76,47.73-28.2,82.42-23.59C1278.46,1421.09,1272.82,1469,1272.82,1469Z"/><path class="cls-39" d="M1167.65,1554.3c3,.28,99.6,8.68,125.8-40.11,10-18.61,6.66-34-1.38-46l0,0c-13.37-19.86-39.79-30.3-39.79-30.3C1304.14,1517.64,1170.81,1553.45,1167.65,1554.3Z"/><path class="cls-40" d="M1156,1602.36c2.12-4.32,6.54-7.16,14.43-7.53,36.64-1.65,59.1-48.79,59.1-48.79l-10.91,1.65-28.67,7.31s-12.46,27.53-34.43,37C1145.57,1596.26,1149.1,1599.76,1156,1602.36Z"/><path class="cls-41" d="M1167.65,1554.3c3,.28,99.6,8.68,125.8-40.11,10-18.61,6.66-34-1.38-46C1292.53,1470.33,1305.44,1534.13,1167.65,1554.3Z"/><path class="cls-42" d="M1300.74,1641.66l-33.81-3.51s1.72,32,17.3,30S1300.74,1641.66,1300.74,1641.66Z"/><path class="cls-43" d="M1538.12,2324.14s13.09,34.67,0,84.55-220.52,356.22-220.52,356.22l67.34-443.25L1515.48,2292Z"/><path class="cls-36" d="M1538.12,2324.14s-31.14,5-53.42,15.56c0,0,5.3,8.49,0,42.46s-116.58,259.65-116.58,259.65l24.24-331.5,127.36-12Z"/><path class="cls-35" d="M1456,2317.43s22.29,2.11,10.62,62.6-200.59,508.37-200.59,508.37h-96.58l109.67-459.72S1366.89,2276.05,1456,2317.43Z"/><path class="cls-44" d="M1538.13,2324.14c-114.62-29.72-259,104.53-259,104.53s-14.21.84-36,2h0c-63.12,3.39-189.56,9.47-215.87,5.26-1-.16-1.87-.3-2.77-.46-33.25-5.67-45-14.05-45-14.05l-32.9-54.84,80.66-169.11s82.61,5.08,179.85,13.13h0c114.46,9.47,249.18,23.06,293.19,37.24,5.73,1.82,9.9,3.69,12.32,5.53C1549.44,2281.7,1538.13,2324.14,1538.13,2324.14Z"/><path class="cls-45" d="M1024.51,2435.48c-33.25-5.67-45-14.05-45-14.05l-32.9-54.84,80.66-169.11s82.61,5.08,179.85,13.13C983.7,2276.82,1024.51,2435.48,1024.51,2435.48Z"/><path class="cls-28" d="M1027.28,2290.88s34.65-63.48,159.19-82.07c0,0-7.07-10.61-25.47-19.1s-114.62-25.47-114.62-25.47l-38.91-19.11Z"/><path class="cls-28" d="M1181.17,1760.23s55.18-10.72,66.86,35-72.17,285.55-72.17,285.55l-159.2,13.79v82.79s2.6,16,10.62,20.16v93.39s-47.76,44.58-47.76,130.54c0,0-104,34-186.79-66.86-78.08-95.09-69.3-389.39,143.88-581a114.46,114.46,0,0,1,87.8-28.81Z"/><path class="cls-46" d="M1027.28,2178.39s-89.9,47.4-47.07,34.67-59.77,46-75.34,91.27S987,2209.52,1097,2191.12Z"/><path class="cls-35" d="M1175.86,2080.75l233.21,49a92.81,92.81,0,0,0,45.51-1.85c37.69-11.19,113.61-31.15,142.62-20.17,39.26,14.87,66.86,49,66.86,62.23v12.67a14.86,14.86,0,0,1-14.86,14.86H1056.55a43.46,43.46,0,0,1-43.38-46.17l3.49-56.26Z"/><path class="cls-46" d="M1175.86,2080.75l-181,17.15A13.35,13.35,0,0,1,981,2080.27l77.65-210.89L1020.08,2057a14.5,14.5,0,0,0,13.56,17.4Z"/><path class="cls-28" d="M1003.12,1753.87l52.24-56.61a12.49,12.49,0,0,1,13.9-3.09l99.54,40.64a12.48,12.48,0,0,1,6.65,16.72l-7.8,17.19Z"/><polygon class="cls-46" points="1171.92 1759.32 1012.08 1744.17 1028.29 1726.6 1174.21 1754.26 1171.92 1759.32"/><path class="cls-47" d="M1512.66,2253.38s-141,17-195.06,70.76-74.4,106.54-74.4,106.54h-12.88s36.81-80.36,82.1-117.38c48.74-39.86,125.41-58.26,187.92-65.45C1506.07,2249.67,1510.24,2251.54,1512.66,2253.38Z"/><path class="cls-47" d="M1192.88,2433.22h14.82s41.74-116.86,117.45-153.66,133.6-41,133.6-41l-28-4.43s-85.1,12.23-139.58,51.85S1192.88,2433.22,1192.88,2433.22Z"/><path class="cls-38" d="M1201.32,1743c-18.39,34.26-56.6,27.18-104.72,57.58s-101.87,126.66-198.1,106.13c-44.88-9.57-44.2-36-30.67-61.46,6.28-11.86,15.35-23.51,23.89-33.16a67.75,67.75,0,0,0,15.92-55.32c-4.86-31.6-4-80.8,35.45-117.81,62.95-59.12,65.1-73.82,73.59-127.31,8.32-52.45,53.37-82.26,55.14-83.37,0-.06,0-.06,0-.06L1129,1556.26l20.42,45.81,5.21,11.66,13,29.16S1219.74,1708.72,1201.32,1743Z"/><path class="cls-39" d="M1156,1602.34a18.91,18.91,0,0,0-1.47,10.09c0,.44.08.87.14,1.3l13,29.16s52.07,65.83,33.65,100.08-56.6,27.18-104.72,57.58-101.87,126.66-198.1,106.13c-44.88-9.57-44.2-36-30.67-61.46-6.51,23.25,23.6,28.22,42,7,21-24.29,8.53-44.27,89.85-57,49.08-7.68,46.88-109.51,58.28-177.91.16-1,.29-1.87.46-2.8,6.53-39.57,41.85-53.51,70.6-58.23a173.19,173.19,0,0,1,38.65-2l35.66-6.94,16.44,14.67c-9.93,13.86-27,31.79-49.37,32.79C1162.51,1595.21,1158.09,1598,1156,1602.34Z"/><path class="cls-41" d="M1201.32,1743c-18.39,34.26-56.6,27.18-104.72,57.58s-101.87,126.66-198.1,106.13c67.7,5.86,124.58-40.17,153.54-88.42s86.33-46,109.66-58.93,35.88-66-12.34-96.61-23.46-73.12-23.46-73.12l23.54,12.47,18.23,40.82S1219.74,1708.72,1201.32,1743Z"/><path class="cls-35" d="M1180,1588.54s-18.73-22.89-41.21-13.29-17.31,45.81,8.68,59.26,44.2,6.67,44.2,6.67Z"/><path class="cls-48" d="M1424.38,2132.17l-4.94,65.31h-26.55l6.37-68.67a5.21,5.21,0,0,1,3.07-4.28,5.12,5.12,0,0,1,3-.38l14.72,2.49A5.25,5.25,0,0,1,1424.38,2132.17Z"/><path class="cls-30" d="M1419.06,2132.17l-4.94,65.31h-21.23l6.37-68.67a5.21,5.21,0,0,1,3.07-4.28l12.42,2.11A5.19,5.19,0,0,1,1419.06,2132.17Z"/><path class="cls-23" d="M1277.37,1564.52c1.28,4.67-.46,9.27-3.88,10.27s-7.22-2-8.5-6.64.47-9.28,3.88-10.28S1276.1,1559.84,1277.37,1564.52Z"/><path class="cls-23" d="M1265.92,1562.41a6.21,6.21,0,0,1-5.29-2.11s.35,5.1,4.59,5.7S1265.92,1562.41,1265.92,1562.41Z"/><path class="cls-23" d="M1240.82,1541.93c2.26,1.7,10.61-.68,20.77-1.36,10.14-.91,18.84.14,20.71-1.88.81-1-.65-2.72-4.51-4.23s-10.08-2.56-17.06-2-12.93,2.55-16.36,4.62S1239.81,1541.1,1240.82,1541.93Z"/><path class="cls-40" d="M1231.2,1547.46l-1.7-1.42,1,2.68C1230.73,1548.27,1231,1547.86,1231.2,1547.46Z"/><rect class="cls-49" x="1154.05" y="2251.07" width="89.15" height="689.49" rx="11.56"/><rect class="cls-50" x="1127.04" y="2251.07" width="89.15" height="689.49" rx="12.06"/><rect class="cls-49" x="2578.78" y="2251.07" width="89.15" height="689.49" rx="11.56"/><rect class="cls-50" x="2623.36" y="2251.07" width="89.15" height="689.49" rx="12.06" transform="translate(5335.86 5191.62) rotate(180)"/><rect class="cls-51" x="945.56" y="2198.59" width="1942.18" height="63.68" rx="11.8"/><rect class="cls-52" x="1006.88" y="2262.27" width="1811.64" height="31.84" rx="5.53"/></g><rect class="cls-53" x="2143.61" y="606.49" width="1763.6" height="1125.71"/><rect class="cls-54" x="2168.2" y="638.89" width="16.72" height="1051.96"/><rect class="cls-55" x="2184.93" y="638.89" width="1688.86" height="1051.96"/><polygon class="cls-54" points="3907.21 606.49 3943.55 629.63 3943.55 1704.27 3907.21 1732.2 3907.21 606.49"/><rect class="cls-56" x="2286.09" y="1238.67" width="581.95" height="389.16" rx="10.07"/><rect class="cls-3" x="2274.05" y="1225.12" width="581.95" height="389.16" rx="10.07"/><rect class="cls-56" x="2295.14" y="1118.62" width="62.21" height="63.5" rx="3.91"/><rect class="cls-56" x="2381.43" y="1132.72" width="465.56" height="35.29" rx="2.8"/><rect class="cls-57" x="2286.09" y="1109.51" width="62.21" height="63.5" rx="3.91"/><rect class="cls-57" x="2372.38" y="1123.61" width="465.56" height="35.29" rx="2.8"/><rect class="cls-58" x="2333.73" y="1250.42" width="350.86" height="124.48" rx="10.62"/><rect class="cls-59" x="2404.83" y="1322.99" width="363.4" height="260.81" rx="7.42"/><line class="cls-60" x1="2430.89" y1="1145.31" x2="2363.01" y2="1261.61"/><ellipse class="cls-61" cx="2430.89" cy="1145.31" rx="11.71" ry="11.95"/><rect class="cls-3" x="2433.36" y="1392.07" width="308.14" height="22.87" rx="2.01"/><rect class="cls-3" x="2433.36" y="1426.77" width="308.14" height="22.87" rx="2.01"/><rect class="cls-3" x="2433.36" y="1461.48" width="308.14" height="22.87" rx="2.01"/><rect class="cls-3" x="2433.36" y="1496.18" width="308.14" height="22.87" rx="2.01"/><rect class="cls-3" x="2433.36" y="1530.89" width="308.14" height="22.87" rx="2.01"/><rect class="cls-56" x="2286.09" y="745.83" width="581.95" height="323.62" rx="10.07"/><path class="cls-3" d="M2856,762.34v266c0,15.93-12.64,28.8-28.21,28.8H2302.25c-15.57,0-28.21-12.87-28.21-28.8v-266c0-15.92,12.64-28.79,28.21-28.79H2827.8C2843.37,733.55,2856,746.42,2856,762.34Z"/><ellipse class="cls-62" cx="2660.23" cy="828.67" rx="55.07" ry="56.21"/><path class="cls-62" d="M2856,1019v9.36c0,15.93-12.64,28.8-28.21,28.8H2302.25c-15.57,0-28.21-12.87-28.21-28.8V912.2c26.13-37,111.19-148,176.6-127.22,78.27,24.79,84.27,167,222.77,138.89C2781.24,902,2836.73,982.38,2856,1019Z"/><g class="cls-63"><path class="cls-13" d="M3292.23,2590l39.22-113.14c20.94,229.51,43.64,478.64,49.74,546.95m164-1420.49s-6.06-29.38-8.49-73c1.37,15.24,3.86,27.15,7.54,34.28,6.63,12.84,16.69,28.47,28.22,44.92l-19.44,8Zm-434.63,8.84c16.29-16.91,31.23-33.57,41.66-47.55l1.39,33C3140.39,1602.72,3125.93,1607.72,3110.59,1612.2Z"/><path class="cls-64" d="M2578.21,1703.88l414.87-14,18.72-6.9a38.78,38.78,0,0,0,18.71-58.12l-64.68-95.56-388,71.15S2515.63,1668.1,2578.21,1703.88Z"/><path class="cls-64" d="M2577.81,1600.42l-127.67-13.29-100.44,54.39a14.73,14.73,0,0,0-4.62,20.65h0a14.71,14.71,0,0,0,15.17,6.35l80.06-17.06,61.07,26.87,63.67-20.4Z"/><polygon class="cls-64" points="2478.04 1620.25 2419.47 1655.6 2394.38 1690.88 2429.26 1804.76 2524.09 1761.36 2578.21 1703.88 2565.05 1657.93 2478.04 1620.25"/><path class="cls-64" d="M2410.8,1694.15l-16.42-3.27-37.72,41-36.16,22.54a17.92,17.92,0,0,0-8,19.09l1.19,5.34,59.73-25,41.66-39.75Z"/><path class="cls-64" d="M2427.54,1699.72l-22.31,11.17-35.75,41.72-59.62,26.93a10.44,10.44,0,0,0-6,11.24h0a10.44,10.44,0,0,0,13.37,8.25l65.4-20.17,49.53-53.54Z"/><path class="cls-64" d="M2447.78,1716.84,2425.46,1728l-35.75,41.72-59.62,26.93a10.45,10.45,0,0,0-6,11.24h0a10.43,10.43,0,0,0,13.37,8.25l65.39-20.17,49.53-53.54Z"/><path class="cls-65" d="M2350.77,1812.05s3.3-12.53,19.72-16.44,47.31-23.1,47.31-23.1l17.06-15.89L2418.08,1789Z"/><path class="cls-64" d="M2474.17,1725.62l-22.31,11.17-35.75,41.72-59.62,26.93a10.44,10.44,0,0,0-6,11.24h0a10.44,10.44,0,0,0,13.37,8.25l65.4-20.17,49.52-53.54Z"/><path class="cls-65" d="M2419.47,1655.6s26.86,2.28,36.32,2.67,46.9,16.12,78.08,7.89c0,0-30.1,17.47-72.25,3.46Z"/><polygon class="cls-65" points="2314.35 1776.93 2371.01 1747.1 2412.26 1701.01 2413.49 1706.75 2373.42 1753.92 2314.35 1776.93"/><polygon class="cls-65" points="2339.14 1791.2 2380.86 1771.7 2426.49 1737.11 2427.3 1743.94 2384.76 1774.1 2339.14 1791.2"/><path class="cls-66" d="M2931.24,1534.74s72,107.81,95.18,173.57c0,0,10-8.77,24.81-22.44,33.86-31.07,93.05-87.33,118.11-122.81,21.21-30,31.42-162.93,19.09-258.73a.6.6,0,0,1,0-.2c-8.65-67.14-17.48-124.9-52.22-107.28,0,0-27.34,29.09-50.62,74s-137,237.49-137,237.49-17.58,3.94-23.5,9.55S2931.24,1534.74,2931.24,1534.74Z"/><path class="cls-67" d="M2953.86,1513s90.23,6.94,122,66.68C3075.84,1579.71,3021.51,1535.27,2953.86,1513Z"/><path class="cls-67" d="M3038,1680.25l13.24,5.62c33.86-31.07,93.05-87.33,118.11-122.81,21.21-30,31.42-162.93,19.09-258.73.13,6.86,3.54,183.08-40.56,247.71C3102.89,1618,3038,1680.25,3038,1680.25Z"/><path class="cls-67" d="M2925.06,1517.85s126.81,64.49,133.35,175.25a15,15,0,0,1-11.89,15.39,46.18,46.18,0,0,1-20.1-.17s-10.7,21.76-25.64,18.88-19.24-2.66-19.24-2.66-16.12-127.32-58.92-197.41Z"/><path class="cls-68" d="M2927.42,1525.39s84.53,84.71,92.76,142S2927.42,1525.39,2927.42,1525.39Z"/><path class="cls-69" d="M3001.31,2727.42c-3.37-179.14,176.37-884.43,176.37-884.43,188.76-151.34,231.78,101.78,240,278.73,3.85,83,.08,149.23.08,149.23l-129.6,367.58"/><path class="cls-70" d="M3241,2590.27,3187.83,2565H3241c0-56.33,72.08-375.73,88.44-447.45,2.07-9.17,3.24-14.28,3.24-14.28l85,18.42c3.85,83,.08,149.23.08,149.23l-111.57,321.8"/><path class="cls-71" d="M3395.13,3026.56c-12.05-135-89-976.47-89-976.47V1864.17l259.34-37.78h0l16.07-2.36s152.18,376,64.47,795.53"/><path class="cls-72" d="M3640.43,2340.15c7.67-193.1-74.92-513.76-74.92-513.76h0l16.07-2.36s89.69,236.21,86.28,479.64"/><path class="cls-66" d="M3665.67,1250.51s-24.8-31-39.45-15.75-59.7,96.35-72.12,191.56c-2.28,17.41-3.53,34.46-4.06,50.69-2.52,72.65,9.13,129.06,9.13,129.06l34.38,62-1.71,106.54s10.15,22,11.85,33.81-6.78,28.73-6.78,28.73-229.1,86.2-422.2,40.54c0,0-29.14-25.32-24.07-50.68s19.73-160.6,19.73-160.6l-12.95-307.67s-36.44-101.06-21.23-161.86l91.28-66.76,182.55-31.9s130.56,24.56,232.55,106.78c0,0,3.82,3.78,8,8.4s8.84,10.11,10.55,13.48C3664.53,1233.62,3665.67,1250.51,3665.67,1250.51Z"/><path class="cls-73" d="M3256.73,1157.38c0,22.17,5.17,45.35,26,47.45,11.92,1.17,24.35-6,36.07-17,31-29.1,57.28-85.12,57.28-85.12l-10-88.3-1-2.06-.17-.25L3346,974.21l-5.55-11.09-30.69,36.2-48.8,57.53.09,9.36v.21l.42,49.13A212.12,212.12,0,0,0,3256.73,1157.38Z"/><path class="cls-74" d="M3426.36,805.16s42.72,16.35,35.78,67.3c0,0,24.78,7.69-2.8,43.55s-62,41.24-62,41.24Z"/><path class="cls-75" d="M3249,1082.7a37.75,37.75,0,0,1-5.92.17c-15.89-.85-30.48-5-42.16-12.09a58.13,58.13,0,0,1-20.11-19.54c-9.22-15.23-11.35-42.21-10.05-71.36.42-9.56,1.19-19.34,2.21-29,1.16-11,2.59-21.78,4.14-32,1.67-10.92,3.46-21.15,5.15-30.1.69-3.65,1.36-7.09,2-10.28,2.93-14.66,5.16-24,5.16-24,14.93-32.56,32.84-56.79,68-59.86,1-.09,2-.16,3-.21,2.54-.13,5.17-.14,7.89-.07,5.86,2.79,13.14,11,19.43,32.22,8.12,27.52,18.4,72.4,37.66,101.07,6.42,9.56,13.83,17.32,22.5,22a40.49,40.49,0,0,0,23.72,4.79c1.72-.15,3.35-.25,4.9-.27.08,1.73.1,2.71.1,2.71a21.48,21.48,0,0,1,3-2.65c14-10.35,39.36-4.4,27.27,33-3.93,12.08-9.91,20.37-16.33,26v0a49.48,49.48,0,0,1-26.82,11.78c-.76.08-1.44.15-2.06.19a31.16,31.16,0,0,1-3.46.08l-.22.29-.05-.52s-44,50.2-109,57.57Z"/><path class="cls-64" d="M3410.44,987c-3.92,12.09-9.89,20.35-16.31,26,0,0,0,0,0,0a49.44,49.44,0,0,1-30.4,12c-1.23,0-1.92,0-1.92,0a1.33,1.33,0,0,0-.14.19c-1.09,1.49.19,0,0,.15l-3.72.22-.05-.52s-35.79,40.86-90.52,54.27a85.28,85.28,0,0,1-49.7-2.53c-14.43-5.31-26.2-14.1-33.34-25.89-9.22-15.24-11.34-42.21-10-71.38q.09-2.16.21-4.32c.95-17.52,3.05-35.68,5.51-52.42,0-.37.11-.74.16-1.11.16-1,.32-2.09.47-3.12q.74-4.83,1.5-9.44c1.14-6.94,2.31-13.51,3.43-19.51.76-4.07,1.5-7.88,2.2-11.38,2.94-14.71,5.18-24,5.18-24,14.85-32.38,32.66-56.54,67.42-59.79l.53,0h0a91.12,91.12,0,0,1,10.94-.27s68.7-21.42,116.26,27c34.18,34.81,18.42,96.45,6.84,128.39C3407.48,948.57,3419.55,958.92,3410.44,987Z"/><path class="cls-22" d="M3183.29,961.69a45.49,45.49,0,0,1-8.58,14.23c.93-17.52,3-35.72,5.47-52.51A44.17,44.17,0,0,1,3183.29,961.69Z"/><path class="cls-22" d="M3183.57,960.53A45.17,45.17,0,0,1,3171,978.71c0-1.21.11-2.44.16-3.66.93-17.53,3-35.72,5.48-52.51.23-1.61.48-3.22.71-4.8C3186.42,929.06,3189.32,945.32,3183.57,960.53Z"/><ellipse class="cls-22" cx="3310.08" cy="968.24" rx="43.32" ry="40.8" transform="translate(1235.72 3723.44) rotate(-69.33)"/><path class="cls-26" d="M3185.67,914.33c-.64,6.23,2.64,11.74,7.31,12.31s9-4,9.62-10.24-2.63-11.75-7.3-12.32S3186.31,908.1,3185.67,914.33Z"/><path class="cls-26" d="M3259.3,922.48c-1.35,5.89,1.43,11.62,6.21,12.81s9.74-2.61,11.09-8.49-1.43-11.63-6.2-12.82S3260.65,916.6,3259.3,922.48Z"/><path class="cls-74" d="M3247.69,891c.77,3.79,14.24,4.06,29.49,8.25,15.34,3.88,27.18,10.3,29.73,7.38,1.14-1.41-.53-5.12-5.08-9.36s-12-8.73-21.18-11.16-17.93-2.21-23.93-.75S3247.39,889.2,3247.69,891Z"/><path class="cls-74" d="M3178.25,887.72c1.9,2.88,9.7.14,19,.23,9.31-.26,17.12,2.33,19-.58.83-1.41-.34-4.27-3.71-7a24.4,24.4,0,0,0-15.33-5,24.71,24.71,0,0,0-15.3,5.29C3178.57,883.44,3177.41,886.32,3178.25,887.72Z"/><path class="cls-25" d="M3196.43,1015.39l62.1-12.26S3240.75,1074,3196.43,1015.39Z"/><path class="cls-26" d="M3215.13,985.48c.08-.42-4.92-1.76-13.07-3.61-2.07-.42-4-1-4.23-2.33s.72-3.36,2-5.45q3.61-6.54,7.6-13.71c10.6-19.54,18.48-35.7,17.59-36.1s-10.2,15.1-20.8,34.65l-7.35,13.82c-1,2.06-2.6,4.34-1.81,7.29a5.18,5.18,0,0,0,3.16,3.13,15.47,15.47,0,0,0,3.5.83C3209.92,985.3,3215.06,985.89,3215.13,985.48Z"/><path class="cls-74" d="M3352.68,868.86s4.42,35.25,2.12,66a35.07,35.07,0,0,0,6,22.38l5.82,8.53s18.55-32.42,30-86.24C3396.62,879.55,3380.4,850.51,3352.68,868.86Z"/><path class="cls-74" d="M3399.75,852l-31.32,42.44.26,64s25.21-13.58,37.35-2.54,17.2-77.51,17.2-77.51Z"/><path class="cls-74" d="M3447,912.08a11.29,11.29,0,0,1-8.15,1.63c-13.9-1.91-32-21.81-32-21.81-116.66-16-83.69-50.63-83.69-50.63s-19.86,10.53-65.06,2c-22.53-4.25-32.18-16.81-36.19-28.33a49.39,49.39,0,0,1-2.56-12.49,46,46,0,0,1,.18-9.67l-7.76,15.62-22.51,45.29c-41.59-57.16,71.62-88,73.12-88.44-10.88,4.64-9.52,11.7-9.52,11.7s21.46-29.11,96.44-20.39c56.4,6.56,73.23,29.53,77.07,48.6a53.43,53.43,0,0,1-2.12,27.91s11,7.61,18.31,24.29-12,20.1-12,20.1a109.2,109.2,0,0,1,11.61,11.79C3448.73,897.17,3454.36,907.07,3447,912.08Z"/><path class="cls-74" d="M3241.42,792.54l-11.23,14.78-2.1,2.77s-2.42,1.69-6.19,4.85c-8.18,6.84-22.7,20.56-32.65,38.75l3.69-16.65,6.75-30.51,21.69-20.22Z"/><path class="cls-74" d="M3409.65,795.85c1.94.63,31.07,12.55,39.08,38.24s-9,60.67-9,60.67l-45.48-34.3Z"/><path class="cls-76" d="M3438.86,913.71c-13.9-1.91-32-21.81-32-21.81-116.66-16-83.69-50.63-83.69-50.63s-19.86,10.53-65.06,2c-22.53-4.25-35.08-9.53-39.09-21.06-8.18,6.85-19.8,13.29-29.75,31.48a64.51,64.51,0,0,1,3.69-16.65,69.6,69.6,0,0,1,18.82-28.64,68.53,68.53,0,0,1,7.58-5.95c1.67-1.13,3.42-2.22,5.28-3.25a35.84,35.84,0,0,0,5.57,8.12c10.28,11.82,37,31.75,97.48,25.55,0,0-7.71,41.76,81.34,52.38,0,0,11,20.5,29.09,28A2.8,2.8,0,0,1,3438.86,913.71Z"/><path class="cls-64" d="M3371.69,957.14s10.14-16,32.1-11.09,13.79,82.33-32.22,78.11Z"/><path class="cls-27" d="M3383.66,1002.27a2.84,2.84,0,0,1-1.84-1.16l-10.21-14,19.78-17a2.85,2.85,0,0,1,4.24.46,3.43,3.43,0,0,1-.54,4.57l-15,12.9,6.53,9a3.44,3.44,0,0,1-.55,4.57A2.91,2.91,0,0,1,3383.66,1002.27Z"/><path class="cls-67" d="M3295.37,1204.81v123.7a3.5,3.5,0,0,1-5.64,2.77l-10.14-7.87a12.22,12.22,0,0,1-4.72-9.64v-111c1.18-1.62,2.32-3,3.33-4.18,1.38,2,2.92,4.14,4.59,6.25l8-11c2.68,2.27,3.86,7,4.31,9.46C3295.29,1204.2,3295.37,1204.81,3295.37,1204.81Z"/><path class="cls-77" d="M3318.83,1187.85c-7.67,7.26-15.71,12.82-23.7,15.42a29.67,29.67,0,0,1-12.34,1.54l8-11,11.41-15.63Z"/><path class="cls-3" d="M3407.87,1112.32c-9.13,29.58-41.52,93.14-53.65,116.39A7.88,7.88,0,0,1,3342,1231c-11.85-10.47-33.93-31.09-39.37-44a12.29,12.29,0,0,1-1.21-5.6c1.09-15.34,72.28-114.37,72.28-114.37s30.84,16.16,36.32,31.13C3410.87,1100.55,3410,1105.54,3407.87,1112.32Z"/><path class="cls-3" d="M3261.4,1147.83c-.08,1.26-.16,2.51-.24,3.73-1.59,20.46-18.71,52.68-28,68.83a3.3,3.3,0,0,1-6.17-1.58l-.24-11.73-1.38-64a36.31,36.31,0,0,1,9.21-25l26.63-29.87S3263.14,1120.39,3261.4,1147.83Z"/><path class="cls-77" d="M3282.79,1204.81a25.34,25.34,0,0,1-7.92-2.07c-14.32-6.54-18.14-26.3-18.14-45.37l4.43-5.81s-1.38,20.25,17,47C3279.58,1200.59,3281.12,1202.7,3282.79,1204.81Z"/><path class="cls-78" d="M3407.87,1112.32c-9.13,29.58-41.52,93.14-53.65,116.39A7.88,7.88,0,0,1,3342,1231c-11.85-10.47-33.93-31.09-39.37-44,0,0,4.26-7.59,13.8,3S3349,1229.32,3407.87,1112.32Z"/><path class="cls-78" d="M3261.4,1147.83c-.08,1.26-.16,2.51-.24,3.73-1.59,20.46-18.71,52.68-28,68.83a3.3,3.3,0,0,1-6.17-1.58l-.24-11.73s5.93,1.34,12.66-13.27C3245.25,1181.11,3258.11,1154.57,3261.4,1147.83Z"/><path class="cls-66" d="M3798,1572.06s-86.12,96.88-118.18,158.81c0,0-8.67-10.06-21.49-25.65-29.25-35.43-80.13-99.31-100.06-137.91-16.87-32.67-8.67-165.7,16.74-258.89a.7.7,0,0,0,0-.2c17.82-65.3,44.1-111,76.08-88.72,0,0,13.5,22.24,30.37,69.89s103,254.1,103,254.1,16.87,6.33,22,12.71S3798,1572.06,3798,1572.06Z"/><path class="cls-67" d="M3778.54,1547.45s-90.33-5.56-130,49.23C3648.53,1596.68,3708.47,1560.16,3778.54,1547.45Z"/><path class="cls-67" d="M3672.17,1701.49l-13.89,3.73c-29.25-35.43-80.13-99.31-100.06-137.91-16.87-32.67-8.67-165.7,16.74-258.89-1.08,6.78-28.74,180.85,6,250.94C3616.47,1630.83,3672.17,1701.49,3672.17,1701.49Z"/><path class="cls-67" d="M3806.4,1556.19s-134.49,46.4-156.22,155.21a15,15,0,0,0,9.66,16.88,46.15,46.15,0,0,0,19.93,2.6s7.6,23,22.79,22.23,19.42,0,19.42,0,33.51-123.89,85.56-187.42Z"/><path class="cls-67" d="M3665.67,1250.51s-24.8-31-39.45-15.75-59.7,96.35-72.12,191.56c-2.28,17.41-3.53,34.46-4.06,50.69-8.28-10.83-14.57-28.2-11.93-55.88,6.33-66.68,44.44-178.94,77.27-203.41,15.06-11.21,26.87-9.5,35.23-4.35,4.22,4.63,8.84,10.11,10.55,13.48C3664.53,1233.62,3665.67,1250.51,3665.67,1250.51Z"/><path class="cls-79" d="M3179.25,1838.74s221.08,29.64,403.81-55C3583.06,1783.69,3448,1892.73,3179.25,1838.74Z"/><path class="cls-64" d="M3731.52,1753.87c-49.2,21.45-325.87,18.33-325.87,18.33l1.27-11.93-15.81-68.18L3613.94,1601c68.73-21.12,139.27-22.51,165.61-21.21,7.16.36,11.2.76,11.2.76C3825.93,1658.86,3780.72,1732.39,3731.52,1753.87Z"/><path class="cls-3" d="M3280.57,1661,3248.11,1562s-147,90.16-284.16,66.26c0,0,96.12,149.15,137.69,206.29s36.57,111.09,36.57,111.09,32.66,19.72,80.16,2.61,123.24-72.39,168.39-49.16Z"/><path class="cls-64" d="M3401.6,1697.35,3352.13,1657a73.93,73.93,0,0,0-60-15.42l-17.45,1.48,5.86,17.86s-68.93-24.57-88.76,12.38,29.65,98.44,82.85,105.34,134.92-6.22,134.92-6.22l18.06-22.85Z"/><path class="cls-73" d="M3274.71,1643.1l5.86,17.86s40.79,3.64,58.86,9.24C3339.43,1670.2,3305.32,1643.71,3274.71,1643.1Z"/><path class="cls-73" d="M3731.52,1753.87c-49.2,21.45-325.87,18.33-325.87,18.33l1.27-11.93c23.44.78,276.65,8.79,330.75-33,56.55-43.61,41.88-147.49,41.88-147.49,7.16.36,11.2.76,11.2.76C3825.93,1658.86,3780.72,1732.39,3731.52,1753.87Z"/><path class="cls-80" d="M3414.29,1782.86l8.35-1.07,4.05-.5a9.16,9.16,0,0,0,8-10.29l-11.52-91.74a9.23,9.23,0,0,0-10.34-8l-4,.51-8.29,1a9.24,9.24,0,0,0-8,10.29l11.56,91.74A9.21,9.21,0,0,0,3414.29,1782.86Z"/><path class="cls-81" d="M3414.29,1782.86l8.35-1.07a9.22,9.22,0,0,0,8-10.28l-11.56-91.75a9.19,9.19,0,0,0-10.3-8l-8.29,1a9.24,9.24,0,0,0-8,10.29l11.56,91.74A9.21,9.21,0,0,0,3414.29,1782.86Z"/></g><rect class="cls-54" x="3574.93" y="762.66" width="436.72" height="343.63" rx="6.58"/><path class="cls-3" d="M3992.33,758.21v308.12a17.82,17.82,0,0,1-17.76,17.75H3573.36a17.82,17.82,0,0,1-17.75-17.75V920L3494,933.61l61.63-62.12V758.21a17.8,17.8,0,0,1,17.75-17.76h401.21A17.8,17.8,0,0,1,3992.33,758.21Z"/><polygon class="cls-54" points="3493.97 933.61 3555.61 941.52 3555.61 920.04 3493.97 933.61"/><polygon class="cls-82" points="3841.04 937.55 3855.89 1024.24 3778.03 983.29 3700.17 1024.24 3715.07 937.55 3652.06 876.12 3739.1 863.51 3778.03 784.6 3816.97 863.51 3904.01 876.12 3841.04 937.55"/><polygon class="cls-83" points="3904.01 876.12 3805.36 869.26 3778.03 784.6 3816.97 863.51 3904.01 876.12"/><polygon class="cls-83" points="3841.04 937.55 3830.71 942.61 3855.89 1024.24 3841.04 937.55"/><polygon class="cls-83" points="3778.03 983.29 3767.6 978.46 3700.17 1024.24 3778.03 983.29"/><polygon class="cls-83" points="3652.06 876.12 3736.98 868.42 3739.1 863.51 3652.06 876.12"/><path class="cls-54" d="M1248.39,851.8v227.5c0,24.23,19.86,43.87,34.48,43.87H1845.6l99,75.89-29.76-75.89h78.11c14.62,0,26.47-19.64,26.47-43.87V851.8c0-24.23-11.85-43.87-26.47-43.87H1274.86C1260.24,807.93,1248.39,827.57,1248.39,851.8Z"/><path class="cls-84" d="M1272,827.67v227.51c0,24.22,11.68,43.86,26.1,43.86h563l84.5,100-16.22-100h77c14.42,0,26.11-19.64,26.11-43.86V827.67c0-24.23-11.69-43.87-26.11-43.87H1298.12C1283.7,783.8,1272,803.44,1272,827.67Z"/><rect class="cls-3" x="1543.89" y="866.8" width="421.96" height="36.03" rx="6.43"/><rect class="cls-3" x="1543.89" y="926.06" width="421.96" height="36.03" rx="6.43"/><rect class="cls-3" x="1543.89" y="986.71" width="421.96" height="36.03" rx="6.43"/><path class="cls-12" d="M1456,846q-21.13-6.91-30.14-7.27.51-25.11-1.74-25.12h-36q-1.56,0-1.56,2.25,0,20.79-.18,23.56-23,4.68-37.41,18.54-15.77,15.24-15.76,37.58,0,20.1,17.14,36.73,8,7.62,34.3,24.59-.87,39.49-1.39,59.24c-.32,0-.63.05-1,.08a75.82,75.82,0,0,1-21.56-5.1q-5.55-2.25-8.66-3.46h-1.56a4.06,4.06,0,0,0-.9.13l-.34-.13h-1.56a4.06,4.06,0,0,0-.9.13l-.34-.13h-1.56a4.06,4.06,0,0,0-.9.13l-.34-.13h-1.56a4.06,4.06,0,0,0-.9.13l-.34-.13h-1.56a4.06,4.06,0,0,0-.9.13l-.34-.13h-1.56a4.06,4.06,0,0,0-.9.13l-.35-.13h-1.55c-1.85,0-2.78,1-2.78,2.94a33.35,33.35,0,0,0,1.22,7.45,61.93,61.93,0,0,1,1.73,7.79c.57,6.13.92,10.74,1,13.86a4.64,4.64,0,0,0,3.29,4.16q16.11,5.37,44.69,5.37-.35,13.15-.35,24.77,0,4.85,1.56,4.85c.57,0,1.39-.06,2.42-.17.12.06.24.17.38.17.57,0,1.39-.06,2.42-.17.12.06.24.17.38.17.57,0,1.39-.06,2.42-.17.12.06.24.17.38.17.57,0,1.39-.06,2.42-.17.12.06.24.17.38.17.57,0,1.39-.06,2.42-.17.13.06.24.17.38.17.57,0,1.39-.06,2.42-.17.13.06.24.17.38.17a30.61,30.61,0,0,0,3.24-.26c.81.06,1.47.08,2,.08.06,0,.11-.09.17-.13,1.09.09,2,.13,2.63.13.06,0,.11-.09.17-.13,1.09.09,2,.13,2.63.13.06,0,.11-.09.17-.13,1.09.09,2,.13,2.63.13.07,0,.11-.09.17-.13,1.09.09,2,.13,2.63.13.06,0,.11-.09.17-.13,1.09.09,2,.13,2.63.13s.87-1.67.87-5q0-13.33-.35-28.06,9-.16,24.42-8.49,29.1-15.58,29.11-47.8,0-20.61-16.63-36.38-7.8-7.62-34.13-23.9V898.45c0-10.69.32-19.26.95-25.77a103.92,103.92,0,0,1,11.87,5.5q16.11,8.67,15.94,8.66a3.14,3.14,0,0,0,1.86-.54c.65.36,1,.54.94.54a3.14,3.14,0,0,0,1.86-.54c.65.36,1,.54.94.54a3.14,3.14,0,0,0,1.86-.54,10.58,10.58,0,0,1,.94.54,3.14,3.14,0,0,0,1.86-.54,10.58,10.58,0,0,1,.94.54,3.14,3.14,0,0,0,1.86-.54,10.58,10.58,0,0,1,.94.54,3.14,3.14,0,0,0,1.86-.54,10.58,10.58,0,0,1,.94.54,3.14,3.14,0,0,0,3.12-2.25q1.73-6.92,2.42-10.39,3.29-8,5-12a8.47,8.47,0,0,0,.52-2.6Q1480.05,853.76,1456,846Zm-34.37,155.7.33-13.89a22.46,22.46,0,0,1,1.3,7.51A13.41,13.41,0,0,1,1421.61,1001.66Zm-35.29-97.53a19.56,19.56,0,0,1-3.44-10.7,17.9,17.9,0,0,1,3.75-10.78Q1386.55,892.42,1386.32,904.13Z"/><path class="cls-58" d="M1463.25,859.65a8.47,8.47,0,0,1-.52,2.6q-1.73,4-5,12-.69,3.46-2.42,10.39a3.15,3.15,0,0,1-3.12,2.25q.16,0-15.94-8.66T1408,868.83q-1.39,10.21-1.39,29.62v30.49q26.33,16.27,34.12,23.9,16.63,15.76,16.63,36.38,0,32.21-29.1,47.8-15.42,8.32-24.42,8.49.35,14.73.35,28.06c0,3.35-.29,5-.87,5-1,0-2.66-.11-4.85-.34s-3.87-.35-5-.35a39.52,39.52,0,0,0-4.77.44,41,41,0,0,1-4.59.43q-1.56,0-1.56-4.85,0-11.61.35-24.77-28.58,0-44.69-5.37a4.64,4.64,0,0,1-3.29-4.16c-.12-3.12-.47-7.73-1-13.86a61.93,61.93,0,0,0-1.73-7.79,33.35,33.35,0,0,1-1.22-7.45c0-2,.93-2.94,2.78-2.94h1.55q3.12,1.21,8.67,3.46a74.85,74.85,0,0,0,27.54,5.37l2.6.17a82,82,0,0,0,9.17-.52q.52-19.74,1.39-59.24-26.33-17-34.3-24.59-17.14-16.63-17.14-36.73,0-22.34,15.76-37.58,14.37-13.86,37.41-18.54.18-2.76.18-23.56,0-2.25,1.56-2.25h19.22q2.25,0,1.74,25.12,9,.34,30.13,7.27Q1463.25,853.76,1463.25,859.65Zm-76.56,11.78a27.86,27.86,0,0,0-13.86,7.79q-6.75,6.59-6.75,14.21,0,13.34,19.92,25.11Q1386.69,890.31,1386.69,871.43Zm36.55,123.85q0-14.55-17.67-25.29l-1,43Q1423.24,1007.23,1423.24,995.28Z"/></g></g></svg>